<svg width="360" height="152" viewBox="0 0 360 152" fill="none" xmlns="http://www.w3.org/2000/svg">
<rect width="360" height="152" rx="8" fill="#F5FAFF"/>
<path d="M211.387 60.5099C211.766 60.491 212.143 60.5759 212.478 60.7541H212.479C212.989 61.0457 213.481 61.5833 213.947 62.3771C214.412 63.1686 214.84 64.1953 215.233 65.4367C215.921 67.6091 216.49 70.4122 216.963 73.7072L217.16 75.1486C217.808 80.2108 218.254 86.2764 218.553 92.8859L218.672 95.7512C218.916 101.775 219.038 108.174 219.103 114.629C218.711 114.676 218.309 114.731 217.914 114.799L217.911 114.8C216.135 115.129 214.405 115.672 212.76 116.417C208.458 118.33 204.106 121.638 200.014 125.986C199.726 118.399 199.58 108.224 200.105 98.1232V98.1223C200.514 89.6834 201.384 81.3079 203.003 74.5617C203.812 71.1887 204.807 68.2336 206.019 65.8849C207.233 63.5333 208.652 61.8138 210.297 60.8781L210.306 60.8732L210.316 60.8664C210.634 60.6525 211.004 60.5291 211.387 60.5099Z" fill="#CCE5FF" stroke="url(#paint0_linear_131_8664)" stroke-width="0.589217"/>
<path d="M152.559 27.2784C152.946 27.2593 153.331 27.3433 153.674 27.5216L189.231 47.6212L211.063 59.9591C210.686 60.0198 210.326 60.1603 210.005 60.3722C208.222 61.3898 206.736 63.2215 205.496 65.6251C204.254 68.0317 203.246 71.0364 202.43 74.4347C200.829 81.1039 199.96 89.3302 199.541 97.6232L172.711 82.4825L173.32 79.2667L173.359 79.0597L173.176 78.9552L164.42 73.9943L164.063 73.7921L163.986 74.1954L163.408 77.215L141.599 64.8663C142.009 56.398 142.853 48.0319 144.408 41.3048C145.192 37.9145 146.153 34.9511 147.326 32.6046C148.5 30.2545 149.871 28.5504 151.459 27.6398L151.466 27.6359L151.473 27.631C151.798 27.4195 152.172 27.2976 152.559 27.2784Z" fill="#E5F2FF" stroke="url(#paint1_linear_131_8664)" stroke-width="0.589217"/>
<path d="M163.293 77.8275L163.133 78.7123C162.813 80.1528 163.074 81.6619 163.86 82.9106L163.861 82.9115C164.217 83.4691 164.69 83.9427 165.248 84.2982L165.262 84.3061L169.651 86.7807C170.313 87.169 170.988 87.1817 171.499 86.7885C171.986 86.4138 172.241 85.7303 172.239 84.894L172.593 83.0922L199.496 98.2807C198.977 108.424 199.128 118.627 199.42 126.193L141.543 93.4662C141.28 85.8088 141.14 75.6297 141.587 65.5463L163.293 77.8275Z" fill="#CCE5FF" stroke="url(#paint2_linear_131_8664)" stroke-width="0.589217"/>
<path d="M172.942 26.6679C173.882 26.1268 175.199 26.1407 176.724 26.9345L177.031 27.1035L186.029 32.2949C187.691 33.2497 189.209 34.9047 190.312 36.8183C191.414 38.7319 192.086 40.8768 192.086 42.7929V42.8076L192.088 42.8232C192.105 42.9846 192.078 43.1478 192.012 43.2958C191.946 43.4416 191.843 43.567 191.714 43.6611L189.229 45.0947C189.08 45.18 188.91 45.2202 188.739 45.2109C188.568 45.2015 188.404 45.1429 188.266 45.0419L188.252 45.0322C187.79 44.7294 187.405 44.3223 187.128 43.8437C186.886 43.4246 186.732 42.9607 186.677 42.4814L186.659 42.2753C186.606 41.2681 186.316 40.2873 185.813 39.413C185.309 38.5387 184.607 37.7952 183.763 37.2431L183.756 37.2382L183.748 37.2343L174.751 32.0497L174.683 32.0097H174.66C174.654 32.0052 174.646 31.9996 174.639 31.9941C174.621 31.9809 174.59 31.9598 174.553 31.9413C173.774 31.5521 173.009 31.5233 172.426 31.9003C171.845 32.2758 171.534 32.9953 171.534 33.9072V33.9257L171.536 33.9443C171.556 34.1026 171.534 34.2638 171.47 34.4101C171.409 34.5485 171.313 34.6675 171.193 34.7587C171.054 34.8215 170.9 34.8487 170.747 34.8339C170.586 34.8183 170.432 34.7582 170.303 34.6611L170.294 34.6552L170.286 34.6494L170.116 34.5322C169.729 34.2475 169.403 33.8858 169.161 33.4687C168.887 32.9965 168.727 32.4666 168.694 31.9218C168.694 30.1229 169.279 28.8958 170.178 28.2744L170.361 28.1581L172.942 26.6679Z" fill="#CCE5FF" stroke="url(#paint3_linear_131_8664)" stroke-width="0.589217"/>
<path d="M172.7 79.3633L171.645 84.8067L171.64 84.835V84.8623C171.64 85.6175 171.416 86.0998 171.129 86.3233C170.863 86.5303 170.462 86.5761 169.932 86.2696L169.93 86.2686L165.559 83.7852C165.137 83.515 164.77 83.1679 164.478 82.7617L164.358 82.583C163.699 81.5358 163.452 80.2844 163.66 79.0703L163.708 78.8282L163.71 78.8194L164.487 74.709L172.7 79.3633Z" fill="#CCE5FF" stroke="url(#paint4_linear_131_8664)" stroke-width="0.589217"/>
<path d="M212.626 60.5044C214.918 61.7948 216.432 67.2568 217.452 75.117C218.194 80.909 218.671 88.0149 218.966 95.7396C219.213 101.85 219.337 108.343 219.402 114.889C218.931 114.942 218.442 115.007 217.964 115.089C216.211 115.415 214.504 115.951 212.879 116.686C208.454 118.654 203.959 122.119 199.746 126.703C199.439 119.043 199.286 108.537 199.811 98.1082C200.659 81.2154 203.293 64.5228 210.151 60.6222C210.514 60.3792 210.936 60.2397 211.372 60.219C211.808 60.1982 212.242 60.2969 212.626 60.5044Z" stroke="url(#paint5_linear_131_8664)" stroke-width="1.76765" stroke-linecap="round" stroke-linejoin="round"/>
<path d="M199.746 126.709L141.254 93.6419C140.983 85.8407 140.83 75.3762 141.313 65.0531C142.114 47.9658 144.695 31.1908 151.33 27.3844C151.698 27.1443 152.123 27.0063 152.562 26.9846C153.001 26.9629 153.438 27.0581 153.828 27.2607L212.602 60.5043" stroke="url(#paint6_linear_131_8664)" stroke-width="1.76765" stroke-linecap="round" stroke-linejoin="round"/>
<path d="M141.331 65.0531L163.621 77.6742" stroke="url(#paint7_linear_131_8664)" stroke-width="1.76765" stroke-linecap="round" stroke-linejoin="round"/>
<path d="M172.382 82.6356L199.799 98.1143" stroke="url(#paint8_linear_131_8664)" stroke-width="1.76765" stroke-linecap="round" stroke-linejoin="round"/>
<path d="M172.382 82.6356L171.935 84.8628C171.935 86.4655 170.986 87.2197 169.784 86.5244L165.406 84.0379C164.885 83.7055 164.442 83.263 164.11 82.7416C163.365 81.5586 163.117 80.1292 163.42 78.7644L164.275 74.251L173.03 79.2122L172.382 82.6356Z" stroke="url(#paint9_linear_131_8664)" stroke-width="1.76765" stroke-linecap="round" stroke-linejoin="round"/>
<path d="M189.376 45.3498C189.178 45.4638 188.951 45.5177 188.723 45.5052C188.495 45.4926 188.275 45.4141 188.091 45.2791C187.59 44.9509 187.172 44.5097 186.872 43.9909C186.573 43.472 186.399 42.8901 186.365 42.2918C186.314 41.3304 186.037 40.3946 185.557 39.5602C185.077 38.7258 184.407 38.0164 183.601 37.4896L174.604 32.3045C174.539 32.3045 174.48 32.2338 174.421 32.2044C172.984 31.4855 171.829 32.2044 171.829 33.9072C171.856 34.1183 171.825 34.3327 171.74 34.5277C171.655 34.7228 171.519 34.8911 171.346 35.0149C171.151 35.109 170.934 35.1478 170.719 35.127C170.504 35.1062 170.299 35.0267 170.126 34.8971C169.624 34.5722 169.206 34.1333 168.906 33.6162C168.606 33.0991 168.433 32.5185 168.399 31.9215C168.399 29.9418 169.089 28.5512 170.214 27.9031L172.795 26.4124C173.92 25.7642 175.47 25.8585 177.179 26.8484L186.176 32.0394C189.611 34.0133 192.381 38.8331 192.381 42.7926C192.403 43.0059 192.368 43.2214 192.28 43.417C192.192 43.6126 192.054 43.7814 191.88 43.9062L189.299 45.3969" stroke="url(#paint10_linear_131_8664)" stroke-width="1.76765" stroke-linecap="round" stroke-linejoin="round"/>
<path d="M28.6052 18.0095C27.4816 16.0834 24.9936 15.4413 23.0274 16.5248C21.1012 17.6484 20.419 20.1363 21.5426 22.1026C22.6662 24.0288 25.1542 24.711 27.0803 23.5874C29.0466 22.4638 29.6887 19.9758 28.6052 18.0095Z" fill="white" stroke="#BED7FB" stroke-width="1.20385" stroke-linecap="round" stroke-linejoin="round"/>
<path d="M318.172 123.718L325.957 119.183" stroke="#BED7FB" stroke-width="1.20385" stroke-linecap="round" stroke-linejoin="round"/>
<path d="M325.957 123.718L318.172 119.183" stroke="#BED7FB" stroke-width="1.20385" stroke-linecap="round" stroke-linejoin="round"/>
<defs>
<linearGradient id="paint0_linear_131_8664" x1="219.402" y1="60.2131" x2="187.014" y2="66.9592" gradientUnits="userSpaceOnUse">
<stop stop-color="#FECA06"/>
<stop offset="0.468792" stop-color="#FF6B00"/>
<stop offset="1" stop-color="#002AA4"/>
</linearGradient>
<linearGradient id="paint1_linear_131_8664" x1="212.626" y1="26.9816" x2="131.232" y2="83.6628" gradientUnits="userSpaceOnUse">
<stop stop-color="#FECA06"/>
<stop offset="0.468792" stop-color="#FF6B00"/>
<stop offset="1" stop-color="#002AA4"/>
</linearGradient>
<linearGradient id="paint2_linear_131_8664" x1="178.068" y1="61.9056" x2="166.302" y2="128.001" gradientUnits="userSpaceOnUse">
<stop stop-color="#92EAFD"/>
<stop offset="0.468792" stop-color="#1071FE"/>
<stop offset="1" stop-color="#A79EFA"/>
</linearGradient>
<linearGradient id="paint3_linear_131_8664" x1="192.387" y1="25.9999" x2="168.882" y2="46.0722" gradientUnits="userSpaceOnUse">
<stop stop-color="#FECA06"/>
<stop offset="0.468792" stop-color="#FF6B00"/>
<stop offset="1" stop-color="#002AA4"/>
</linearGradient>
<linearGradient id="paint4_linear_131_8664" x1="173.03" y1="74.251" x2="160.252" y2="81.1453" gradientUnits="userSpaceOnUse">
<stop stop-color="#FECA06"/>
<stop offset="0.468792" stop-color="#FF6B00"/>
<stop offset="1" stop-color="#002AA4"/>
</linearGradient>
<linearGradient id="paint5_linear_131_8664" x1="212.034" y1="56.8221" x2="180.507" y2="112.505" gradientUnits="userSpaceOnUse">
<stop stop-color="#92EAFD"/>
<stop offset="0.468792" stop-color="#1071FE"/>
<stop offset="1" stop-color="#A79EFA"/>
</linearGradient>
<linearGradient id="paint6_linear_131_8664" x1="186.139" y1="21.8905" x2="161.44" y2="126.346" gradientUnits="userSpaceOnUse">
<stop stop-color="#92EAFD"/>
<stop offset="0.468792" stop-color="#1071FE"/>
<stop offset="1" stop-color="#A79EFA"/>
</linearGradient>
<linearGradient id="paint7_linear_131_8664" x1="155.383" y1="64.4088" x2="154.053" y2="78.2396" gradientUnits="userSpaceOnUse">
<stop stop-color="#92EAFD"/>
<stop offset="0.468792" stop-color="#1071FE"/>
<stop offset="1" stop-color="#A79EFA"/>
</linearGradient>
<linearGradient id="paint8_linear_131_8664" x1="189.666" y1="81.8454" x2="188.04" y2="98.8087" gradientUnits="userSpaceOnUse">
<stop stop-color="#92EAFD"/>
<stop offset="0.468792" stop-color="#1071FE"/>
<stop offset="1" stop-color="#A79EFA"/>
</linearGradient>
<linearGradient id="paint9_linear_131_8664" x1="169.432" y1="73.6112" x2="166.541" y2="86.8402" gradientUnits="userSpaceOnUse">
<stop stop-color="#92EAFD"/>
<stop offset="0.468792" stop-color="#1071FE"/>
<stop offset="1" stop-color="#A79EFA"/>
</linearGradient>
<linearGradient id="paint10_linear_131_8664" x1="183.522" y1="25.0041" x2="180.599" y2="46.1749" gradientUnits="userSpaceOnUse">
<stop stop-color="#92EAFD"/>
<stop offset="0.468792" stop-color="#1071FE"/>
<stop offset="1" stop-color="#A79EFA"/>
</linearGradient>
</defs>
</svg>
