<svg width="360" height="152" viewBox="0 0 360 152" fill="none" xmlns="http://www.w3.org/2000/svg">
<rect width="360" height="152" rx="8" fill="#F5FAFF"/>
<g clip-path="url(#clip0_131_8687)">
<path d="M153.036 88.3461C153.104 88.4455 153.174 88.5519 153.244 88.6674L153.25 88.6782L153.257 88.6879C154.172 89.9457 155.273 91.1104 156.507 91.8159C157.716 92.5066 158.917 92.77 159.919 92.4692C159.983 92.4648 160.044 92.4535 160.104 92.435C162.515 95.9621 165.326 101.268 167.909 108.211L145.298 95.1977C147.871 91.1144 150.667 89.0921 153.036 88.3461Z" fill="white" stroke="url(#paint0_linear_131_8687)" stroke-width="0.56458"/>
<path d="M192.667 110.587C192.737 110.687 192.807 110.795 192.877 110.912L192.883 110.923L192.891 110.932C193.809 112.195 194.967 113.357 196.198 114.06C197.43 114.765 198.634 114.958 199.624 114.711L199.634 114.708L199.645 114.704C199.69 114.689 199.735 114.674 199.78 114.659C202.259 118.308 205.24 123.908 207.843 131.311L184.648 117.893C187.336 113.527 190.243 111.339 192.667 110.587Z" fill="#CCE5FF" stroke="url(#paint1_linear_131_8687)" stroke-width="0.56458"/>
<path d="M153.09 49.4536C153.145 49.5259 153.199 49.598 153.254 49.6703V49.6713C154.17 50.9886 155.271 52.1539 156.506 52.8598C157.727 53.5574 158.941 53.8202 159.949 53.5053L160.089 53.4584C162.622 57.1628 165.609 62.8234 168.265 70.393L144.897 56.8608C147.592 52.3783 150.558 50.1359 153.038 49.3832C153.055 49.4065 153.073 49.4303 153.09 49.4536Z" fill="white" stroke="url(#paint2_linear_131_8687)" stroke-width="0.56458"/>
<path d="M143.742 16.4464C144.149 16.2208 144.722 16.2006 145.391 16.5606L220.298 59.7999V59.8008C221.031 60.2458 221.734 61.0742 222.255 62.0684C222.775 63.0605 223.098 64.1875 223.098 65.2051V130.132C223.098 131.205 222.723 131.94 222.213 132.265L217.858 134.815C217.998 134.418 218.073 133.959 218.073 133.463V68.5362C218.073 67.3809 217.72 66.1639 217.166 65.1153C216.614 64.0688 215.849 63.1625 215.002 62.6485L214.996 62.6456L140.076 19.3985L140.07 19.3946L139.78 19.253C139.612 19.1795 139.448 19.123 139.286 19.0831L143.742 16.4464Z" fill="#CCE5FF" stroke="url(#paint3_linear_131_8687)" stroke-width="0.56458"/>
<path d="M138.21 19.7205C138.6 19.5036 139.113 19.5206 139.801 19.8914L177.085 41.4295V75.4451L169.016 70.827C166.315 62.9698 163.239 57.0876 160.619 53.2332C161.71 52.6237 162.349 51.2657 162.349 49.4529C162.349 47.6696 161.722 45.716 160.723 43.991C159.724 42.2658 158.337 40.7431 156.79 39.8377C155.242 38.9325 153.774 38.8086 152.674 39.4412C151.575 40.0739 150.945 41.4048 150.945 43.1863C150.945 45.0591 151.618 47.121 152.71 48.8953C150.092 49.7477 147.095 52.1068 144.409 56.5779L137.282 52.452V21.9022C137.282 20.7201 137.654 20.0475 138.21 19.7205Z" fill="white" stroke="url(#paint4_linear_131_8687)" stroke-width="0.56458"/>
<path d="M217.508 99.4115V133.462C217.508 134.544 217.129 135.262 216.639 135.53L216.628 135.535L216.618 135.542C216.235 135.798 215.681 135.787 214.995 135.419H214.996L208.593 131.745C205.947 124.055 202.874 118.232 200.308 114.434C201.398 113.826 202.039 112.473 202.039 110.71C202.039 108.899 201.413 106.931 200.414 105.199C199.414 103.466 198.027 101.944 196.479 101.038L196.476 101.035L196.187 100.88C194.748 100.148 193.394 100.077 192.364 100.67C191.264 101.303 190.634 102.635 190.634 104.444C190.634 106.265 191.309 108.324 192.351 110.095C189.788 110.942 186.841 113.245 184.157 117.612L177.649 113.877V76.4193L217.508 99.4115Z" fill="white" stroke="url(#paint5_linear_131_8687)" stroke-width="0.56458"/>
<path d="M194.021 73.8363C194.075 73.9194 194.124 74.001 194.165 74.0824L194.173 74.0999L194.185 74.1175C195.105 75.4399 196.264 76.6022 197.496 77.306C198.728 78.0103 199.932 78.2037 200.921 77.9564L200.932 77.9535L200.943 77.9496C200.988 77.9346 201.033 77.9196 201.078 77.9046C203.496 81.4357 206.366 86.7566 208.909 93.8206L186.229 80.7445C188.803 76.6101 191.648 74.5834 194.021 73.8363Z" fill="white" stroke="url(#paint6_linear_131_8687)" stroke-width="0.56458"/>
<path d="M177.085 76.0943V113.549L168.675 108.653C166.034 101.41 163.124 95.8696 160.62 92.189C161.709 91.5803 162.349 90.2281 162.349 88.4654C162.349 86.6544 161.723 84.6863 160.723 82.9537C159.724 81.2212 158.337 79.6989 156.79 78.7935C155.242 77.8883 153.773 77.7637 152.672 78.4048C151.573 79.0454 150.945 80.3908 150.945 82.1988C150.945 84.0205 151.619 86.0815 152.712 87.856C150.217 88.6904 147.383 90.8229 144.808 94.9166L140.192 92.2877C138.412 91.2078 137.282 89.2665 137.282 87.1675V53.1031L177.085 76.0943Z" fill="#E5F2FF" stroke="url(#paint7_linear_131_8687)" stroke-width="0.56458"/>
<path d="M214.708 63.1317H214.708C215.443 63.5775 216.145 64.393 216.666 65.3788C217.185 66.3626 217.508 67.4894 217.508 68.536V98.7606L209.666 94.2557C207.077 86.9018 204.114 81.3593 201.608 77.6795C202.697 77.0709 203.337 75.7185 203.337 73.9559C203.337 72.1449 202.711 70.1769 201.711 68.4442C200.712 66.7116 199.326 65.1884 197.778 64.2831C196.23 63.3779 194.762 63.2548 193.663 63.8875C192.563 64.5202 191.933 65.8511 191.933 67.6327C191.933 69.5072 192.608 71.5711 193.701 73.3465C191.202 74.1805 188.318 76.3143 185.74 80.4618L177.649 75.7684V41.7538L214.708 63.1317Z" fill="#E5F2FF" stroke="url(#paint8_linear_131_8687)" stroke-width="0.56458"/>
<path d="M152.958 78.8925C153.819 78.3907 155.06 78.4364 156.505 79.2812C157.949 80.126 159.272 81.5674 160.235 83.2363C161.198 84.9052 161.785 86.7765 161.785 88.4658C161.785 90.2668 161.079 91.4254 160.099 91.8174L160.072 91.8281L160.047 91.8437C159.971 91.8945 159.912 91.9101 159.865 91.9101H159.822L159.781 91.9228C158.982 92.1723 157.938 91.9832 156.788 91.3261C155.653 90.6776 154.608 89.5864 153.717 88.3623C153.605 88.1758 153.492 88.0051 153.378 87.8515C152.218 86.0818 151.509 83.9929 151.509 82.1992C151.509 80.5069 152.095 79.3953 152.958 78.8925Z" fill="white" stroke="url(#paint9_linear_131_8687)" stroke-width="0.56458"/>
<path d="M193.944 64.3765C194.806 63.8802 196.048 63.9262 197.493 64.771C198.937 65.6158 200.261 67.0572 201.223 68.7261C202.186 70.3949 202.773 72.2663 202.773 73.9556C202.773 75.7533 202.069 76.9102 201.092 77.3042C201.039 77.3219 200.986 77.3402 200.933 77.3579C200.881 77.3754 200.828 77.3921 200.775 77.4097C199.96 77.6103 198.909 77.4638 197.775 76.8159C196.637 76.1654 195.538 75.0712 194.652 73.7983C194.574 73.6467 194.48 73.4967 194.371 73.3491C193.261 71.5718 192.498 69.4803 192.498 67.6323C192.498 65.9701 193.081 64.8729 193.944 64.3765Z" fill="white" stroke="url(#paint10_linear_131_8687)" stroke-width="0.56458"/>
<path d="M192.646 101.16C193.508 100.664 194.751 100.708 196.195 101.524V101.525C197.639 102.37 198.963 103.812 199.925 105.481C200.888 107.15 201.475 109.022 201.475 110.711C201.475 112.508 200.771 113.664 199.794 114.058C199.741 114.076 199.688 114.094 199.635 114.112C199.583 114.13 199.53 114.146 199.477 114.164C198.662 114.365 197.611 114.218 196.477 113.57C195.339 112.92 194.24 111.827 193.353 110.608C193.243 110.425 193.131 110.259 193.018 110.107C191.91 108.333 191.2 106.239 191.2 104.443C191.2 102.752 191.784 101.656 192.646 101.16Z" fill="white" stroke="url(#paint11_linear_131_8687)" stroke-width="0.56458"/>
<path d="M152.956 39.9303C153.818 39.434 155.06 39.48 156.505 40.3248C157.949 41.1696 159.272 42.6119 160.235 44.274C161.198 45.9363 161.785 47.7934 161.785 49.4537C161.785 51.2968 161.088 52.4091 160.099 52.86C160.048 52.8771 159.996 52.8946 159.945 52.9117C159.89 52.93 159.836 52.9482 159.781 52.9664C158.982 53.2159 157.938 53.0269 156.788 52.3697C155.652 51.7207 154.608 50.6278 153.717 49.3482L153.712 49.3404L153.542 49.1148C153.486 49.0408 153.431 48.9662 153.376 48.8922C152.218 47.1238 151.509 45.0359 151.509 43.1861C151.509 41.5239 152.093 40.4267 152.956 39.9303Z" fill="white" stroke="url(#paint12_linear_131_8687)" stroke-width="0.56458"/>
<path d="M208.363 131.939L140.048 92.5308C138.185 91.4016 137 89.3691 137 87.1673V21.9018C137 20.6597 137.395 19.8693 138.072 19.4741C138.58 19.1918 139.201 19.2483 139.935 19.6435L214.855 62.8903C216.436 63.8501 217.791 66.3343 217.791 68.5361V133.463C217.791 134.592 217.396 135.439 216.775 135.778C216.267 136.116 215.589 136.06 214.855 135.665L208.363 131.939Z" stroke="url(#paint13_linear_131_8687)" stroke-width="1.69374" stroke-linecap="round" stroke-linejoin="round"/>
<path d="M216.775 135.777L222.364 132.503C222.985 132.108 223.381 131.261 223.381 130.131V65.2048C223.381 63.0594 222.026 60.5187 220.445 59.559L145.525 16.3121C144.791 15.9169 144.114 15.9169 143.605 16.1992L138.016 19.5302" stroke="url(#paint14_linear_131_8687)" stroke-width="1.69374" stroke-linecap="round" stroke-linejoin="round"/>
<path d="M177.367 41.2664V114.041" stroke="url(#paint15_linear_131_8687)" stroke-width="1.69374" stroke-linecap="round" stroke-linejoin="round"/>
<path d="M209.435 94.4503L217.791 99.2492" stroke="url(#paint16_linear_131_8687)" stroke-width="1.69374" stroke-linecap="round" stroke-linejoin="round"/>
<path d="M137 52.6148L209.435 94.4502" stroke="url(#paint17_linear_131_8687)" stroke-width="1.69374" stroke-linecap="round" stroke-linejoin="round"/>
<path d="M160.204 53.1231C160.091 53.1607 159.978 53.1984 159.865 53.236C158.962 53.5183 157.833 53.2925 156.647 52.615C155.462 51.9375 154.389 50.8083 153.485 49.5098C153.373 49.3592 153.26 49.2087 153.147 49.0581C151.961 47.2514 151.227 45.106 151.227 43.1865C151.227 39.7425 153.655 38.3311 156.647 40.0813C159.639 41.8315 162.067 46.0093 162.067 49.4533C162.067 51.3729 161.333 52.6149 160.204 53.1231Z" stroke="url(#paint18_linear_131_8687)" stroke-width="1.69374" stroke-linecap="round" stroke-linejoin="round"/>
<path d="M160.204 53.1229C162.857 56.962 166.019 62.9466 168.785 71.0201" stroke="url(#paint19_linear_131_8687)" stroke-width="1.69374" stroke-linecap="round" stroke-linejoin="round"/>
<path d="M153.146 49.058C150.493 49.792 147.331 52.1632 144.508 56.9622" stroke="#0284FF" stroke-width="1.69374" stroke-linecap="round" stroke-linejoin="round"/>
<path d="M160.204 92.0791C160.091 92.1543 159.978 92.192 159.865 92.192C158.962 92.4743 157.833 92.2485 156.647 91.571C155.462 90.8935 154.389 89.7643 153.485 88.5222C153.373 88.334 153.26 88.1647 153.147 88.0141C151.961 86.2074 151.227 84.062 151.227 82.1989C151.227 78.6985 153.655 77.2871 156.647 79.0373C159.639 80.7875 162.067 84.9654 162.067 88.4658C162.067 90.3289 161.333 91.6274 160.204 92.0791Z" stroke="url(#paint20_linear_131_8687)" stroke-width="1.69374" stroke-linecap="round" stroke-linejoin="round"/>
<path d="M160.204 92.0789C162.744 95.7487 165.736 101.395 168.446 108.847" stroke="url(#paint21_linear_131_8687)" stroke-width="1.69374" stroke-linecap="round" stroke-linejoin="round"/>
<path d="M153.147 88.0141C150.606 88.7481 147.614 90.8935 144.904 95.2972" stroke="#0183C3" stroke-width="1.69374" stroke-linecap="round" stroke-linejoin="round"/>
<path d="M199.894 114.324C199.781 114.361 199.669 114.399 199.556 114.437C198.652 114.662 197.523 114.493 196.337 113.816C195.152 113.138 194.023 112.009 193.119 110.767C193.006 110.579 192.894 110.409 192.781 110.259C191.651 108.452 190.917 106.307 190.917 104.444C190.917 100.943 193.345 99.5882 196.337 101.282C199.33 103.032 201.757 107.21 201.757 110.71C201.757 112.573 201.023 113.872 199.894 114.324Z" stroke="url(#paint22_linear_131_8687)" stroke-width="1.69374" stroke-linecap="round" stroke-linejoin="round"/>
<path d="M199.894 114.324C202.491 118.106 205.653 124.034 208.363 131.939" stroke="url(#paint23_linear_131_8687)" stroke-width="1.69374" stroke-linecap="round" stroke-linejoin="round"/>
<path d="M192.781 110.259C190.184 110.993 187.078 113.307 184.255 117.993" stroke="#0167FF" stroke-width="1.69374" stroke-linecap="round" stroke-linejoin="round"/>
<path d="M194.135 73.5043C192.949 71.6976 192.215 69.5522 192.215 67.6327C192.215 64.1887 194.643 62.7773 197.635 64.5275C200.628 66.2777 203.055 70.4555 203.055 73.9559C203.055 75.819 202.321 77.1176 201.192 77.5693C201.079 77.6069 200.966 77.6445 200.853 77.6821C199.95 77.908 198.821 77.7386 197.635 77.0611C196.45 76.3836 195.321 75.2545 194.417 73.9559C194.342 73.8054 194.248 73.6549 194.135 73.5043Z" stroke="url(#paint24_linear_131_8687)" stroke-width="1.69374" stroke-linecap="round" stroke-linejoin="round"/>
<path d="M201.193 77.5692C203.733 81.239 206.782 86.8848 209.436 94.4501" stroke="url(#paint25_linear_131_8687)" stroke-width="1.69374" stroke-linecap="round" stroke-linejoin="round"/>
<path d="M194.135 73.5042C191.594 74.2382 188.545 76.3836 185.835 80.8438" stroke="#0053FF" stroke-width="1.69374" stroke-linecap="round" stroke-linejoin="round"/>
</g>
<path d="M52.6995 33.2485L47.3811 38.5132L42.009 27.1242L36.6905 32.3889L31.3184 21L26 26.2647" stroke="#BED7FB" stroke-linecap="round" stroke-linejoin="round"/>
<path d="M317 134.353L320.193 137.513L323.418 130.676L326.61 133.869L329.835 127L333.028 130.193" stroke="#BED7FB" stroke-linecap="round" stroke-linejoin="round"/>
<defs>
<linearGradient id="paint0_linear_131_8687" x1="168.447" y1="88.0141" x2="143.759" y2="107.388" gradientUnits="userSpaceOnUse">
<stop stop-color="#92EAFD"/>
<stop offset="0.468792" stop-color="#1071FE"/>
<stop offset="1" stop-color="#A79EFA"/>
</linearGradient>
<linearGradient id="paint1_linear_131_8687" x1="208.363" y1="110.259" x2="182.773" y2="130.019" gradientUnits="userSpaceOnUse">
<stop stop-color="#92EAFD"/>
<stop offset="0.468792" stop-color="#1071FE"/>
<stop offset="1" stop-color="#A79EFA"/>
</linearGradient>
<linearGradient id="paint2_linear_131_8687" x1="168.785" y1="49.058" x2="142.902" y2="68.9273" gradientUnits="userSpaceOnUse">
<stop stop-color="#92EAFD"/>
<stop offset="0.468792" stop-color="#1071FE"/>
<stop offset="1" stop-color="#A79EFA"/>
</linearGradient>
<linearGradient id="paint3_linear_131_8687" x1="223.381" y1="16.0001" x2="107.242" y2="73.4422" gradientUnits="userSpaceOnUse">
<stop stop-color="#92EAFD"/>
<stop offset="0.468792" stop-color="#1071FE"/>
<stop offset="1" stop-color="#A79EFA"/>
</linearGradient>
<linearGradient id="paint4_linear_131_8687" x1="177.367" y1="19.2977" x2="122.427" y2="46.4919" gradientUnits="userSpaceOnUse">
<stop stop-color="#92EAFD"/>
<stop offset="0.468792" stop-color="#1071FE"/>
<stop offset="1" stop-color="#A79EFA"/>
</linearGradient>
<linearGradient id="paint5_linear_131_8687" x1="217.791" y1="75.932" x2="161.573" y2="102.205" gradientUnits="userSpaceOnUse">
<stop stop-color="#92EAFD"/>
<stop offset="0.468792" stop-color="#1071FE"/>
<stop offset="1" stop-color="#A79EFA"/>
</linearGradient>
<linearGradient id="paint6_linear_131_8687" x1="209.435" y1="73.5042" x2="184.631" y2="92.9111" gradientUnits="userSpaceOnUse">
<stop stop-color="#92EAFD"/>
<stop offset="0.468792" stop-color="#1071FE"/>
<stop offset="1" stop-color="#A79EFA"/>
</linearGradient>
<linearGradient id="paint7_linear_131_8687" x1="177.367" y1="52.6148" x2="120.757" y2="78.4499" gradientUnits="userSpaceOnUse">
<stop stop-color="#92EAFD"/>
<stop offset="0.468792" stop-color="#1071FE"/>
<stop offset="1" stop-color="#A79EFA"/>
</linearGradient>
<linearGradient id="paint8_linear_131_8687" x1="217.791" y1="41.2664" x2="162.301" y2="68.1316" gradientUnits="userSpaceOnUse">
<stop stop-color="#92EAFD"/>
<stop offset="0.468792" stop-color="#1071FE"/>
<stop offset="1" stop-color="#A79EFA"/>
</linearGradient>
<linearGradient id="paint9_linear_131_8687" x1="162.067" y1="78.2861" x2="147.808" y2="85.9399" gradientUnits="userSpaceOnUse">
<stop stop-color="#92EAFD"/>
<stop offset="0.468792" stop-color="#1071FE"/>
<stop offset="1" stop-color="#A79EFA"/>
</linearGradient>
<linearGradient id="paint10_linear_131_8687" x1="203.055" y1="63.7749" x2="188.806" y2="71.4356" gradientUnits="userSpaceOnUse">
<stop stop-color="#92EAFD"/>
<stop offset="0.468792" stop-color="#1071FE"/>
<stop offset="1" stop-color="#A79EFA"/>
</linearGradient>
<linearGradient id="paint11_linear_131_8687" x1="201.757" y1="100.556" x2="187.52" y2="108.224" gradientUnits="userSpaceOnUse">
<stop stop-color="#92EAFD"/>
<stop offset="0.468792" stop-color="#1071FE"/>
<stop offset="1" stop-color="#A79EFA"/>
</linearGradient>
<linearGradient id="paint12_linear_131_8687" x1="162.067" y1="39.3287" x2="147.807" y2="46.9821" gradientUnits="userSpaceOnUse">
<stop stop-color="#92EAFD"/>
<stop offset="0.468792" stop-color="#1071FE"/>
<stop offset="1" stop-color="#A79EFA"/>
</linearGradient>
<linearGradient id="paint13_linear_131_8687" x1="217.791" y1="19.2977" x2="106.595" y2="72.7558" gradientUnits="userSpaceOnUse">
<stop stop-color="#92EAFD"/>
<stop offset="0.468792" stop-color="#1071FE"/>
<stop offset="1" stop-color="#A79EFA"/>
</linearGradient>
<linearGradient id="paint14_linear_131_8687" x1="223.381" y1="15.9998" x2="107.195" y2="73.5031" gradientUnits="userSpaceOnUse">
<stop stop-color="#92EAFD"/>
<stop offset="0.468792" stop-color="#1071FE"/>
<stop offset="1" stop-color="#A79EFA"/>
</linearGradient>
<linearGradient id="paint15_linear_131_8687" x1="178.367" y1="41.2664" x2="176.672" y2="41.2826" gradientUnits="userSpaceOnUse">
<stop stop-color="#92EAFD"/>
<stop offset="0.468792" stop-color="#1071FE"/>
<stop offset="1" stop-color="#A79EFA"/>
</linearGradient>
<linearGradient id="paint16_linear_131_8687" x1="217.791" y1="94.4503" x2="212.04" y2="101.404" gradientUnits="userSpaceOnUse">
<stop stop-color="#92EAFD"/>
<stop offset="0.468792" stop-color="#1071FE"/>
<stop offset="1" stop-color="#A79EFA"/>
</linearGradient>
<linearGradient id="paint17_linear_131_8687" x1="209.435" y1="52.6148" x2="159.251" y2="112.956" gradientUnits="userSpaceOnUse">
<stop stop-color="#92EAFD"/>
<stop offset="0.468792" stop-color="#1071FE"/>
<stop offset="1" stop-color="#A79EFA"/>
</linearGradient>
<linearGradient id="paint18_linear_131_8687" x1="162.067" y1="39.3287" x2="147.807" y2="46.9821" gradientUnits="userSpaceOnUse">
<stop stop-color="#92EAFD"/>
<stop offset="0.468792" stop-color="#1071FE"/>
<stop offset="1" stop-color="#A79EFA"/>
</linearGradient>
<linearGradient id="paint19_linear_131_8687" x1="168.785" y1="53.1229" x2="155.695" y2="57.4815" gradientUnits="userSpaceOnUse">
<stop stop-color="#92EAFD"/>
<stop offset="0.468792" stop-color="#1071FE"/>
<stop offset="1" stop-color="#A79EFA"/>
</linearGradient>
<linearGradient id="paint20_linear_131_8687" x1="162.067" y1="78.2861" x2="147.808" y2="85.9399" gradientUnits="userSpaceOnUse">
<stop stop-color="#92EAFD"/>
<stop offset="0.468792" stop-color="#1071FE"/>
<stop offset="1" stop-color="#A79EFA"/>
</linearGradient>
<linearGradient id="paint21_linear_131_8687" x1="168.446" y1="92.0789" x2="155.937" y2="96.3492" gradientUnits="userSpaceOnUse">
<stop stop-color="#92EAFD"/>
<stop offset="0.468792" stop-color="#1071FE"/>
<stop offset="1" stop-color="#A79EFA"/>
</linearGradient>
<linearGradient id="paint22_linear_131_8687" x1="201.757" y1="100.556" x2="187.52" y2="108.224" gradientUnits="userSpaceOnUse">
<stop stop-color="#92EAFD"/>
<stop offset="0.468792" stop-color="#1071FE"/>
<stop offset="1" stop-color="#A79EFA"/>
</linearGradient>
<linearGradient id="paint23_linear_131_8687" x1="208.363" y1="114.324" x2="195.452" y2="118.634" gradientUnits="userSpaceOnUse">
<stop stop-color="#92EAFD"/>
<stop offset="0.468792" stop-color="#1071FE"/>
<stop offset="1" stop-color="#A79EFA"/>
</linearGradient>
<linearGradient id="paint24_linear_131_8687" x1="203.055" y1="63.7749" x2="188.806" y2="71.4356" gradientUnits="userSpaceOnUse">
<stop stop-color="#92EAFD"/>
<stop offset="0.468792" stop-color="#1071FE"/>
<stop offset="1" stop-color="#A79EFA"/>
</linearGradient>
<linearGradient id="paint25_linear_131_8687" x1="209.436" y1="77.5692" x2="196.909" y2="81.817" gradientUnits="userSpaceOnUse">
<stop stop-color="#92EAFD"/>
<stop offset="0.468792" stop-color="#1071FE"/>
<stop offset="1" stop-color="#A79EFA"/>
</linearGradient>
<clipPath id="clip0_131_8687">
<rect width="103.225" height="120" fill="white" transform="translate(128.387 16)"/>
</clipPath>
</defs>
</svg>
