<svg width="360" height="152" viewBox="0 0 360 152" fill="none" xmlns="http://www.w3.org/2000/svg">
<rect width="360" height="152" rx="8" fill="#F5FAFF"/>
<path d="M225.45 98.2826C225.45 104.6 223.234 108.967 219.702 111.007L204.704 119.669C208.23 117.63 210.452 113.263 210.452 106.945C210.452 93.8042 200.713 77.3483 188.671 71.8062C186.185 47.6219 162.183 23.6432 147.567 31.019L162.541 22.3679C177.187 14.9804 201.183 38.9649 203.669 63.1668C215.712 68.7089 225.45 85.159 225.45 98.2826Z" fill="#CCE6FF"/>
<path d="M140.103 42.9615C141.502 33.5581 147.461 31.125 147.567 31.0192C162.183 23.6434 186.185 47.6221 188.671 71.8358C200.714 77.3779 210.452 93.8338 210.452 106.975C210.452 113.293 208.236 117.66 204.704 119.699C201.554 121.515 197.352 121.462 192.744 119.335C191.663 118.835 194.108 120.24 168.407 105.394V80.4986L178.904 86.5579L163.083 55.9675L146.879 68.0685L157.376 74.1278V99.0174L140.832 89.4671C131.534 84.0895 124 71.0424 124 60.3107C124 54.9391 125.886 51.166 128.931 49.4087C131.775 47.769 135.631 47.8806 139.909 50.0846H139.944C139.725 47.712 139.778 45.322 140.103 42.9615Z" fill="#E6F2FF"/>
<path d="M169.324 79.9519L173.908 77.2367L178.903 86.5578L168.407 80.4985L169.324 79.9519Z" fill="#CCE5FF"/>
<path d="M169.324 68.674L173.908 77.237L169.324 79.9522V68.674Z" fill="#E5F2FF"/>
<path d="M169.324 68.6737V79.9519L168.407 80.4985V92.5818L157.376 99.0173V74.1277L168.731 67.5747L169.324 68.6737Z" fill="#CCE5FF"/>
<path d="M168.078 66.5462L168.73 67.5746L157.375 74.1276L146.879 68.0683L158.381 60.6691L168.078 66.5462Z" fill="#B4D7FB"/>
<path d="M162.789 57.7308L168.201 66.8816L158.381 61.2571L162.789 57.7308Z" fill="#B4D7FB"/>
<path d="M163.511 57.8367L158.827 61.1749L146.879 68.0688L162.888 56.673L163.511 57.8367Z" fill="#373A3A"/>
<path d="M162.495 22.3855L161.555 22.9379C162.037 22.6264 162.383 22.4677 162.495 22.3855Z" fill="white"/>
<path d="M128.93 49.4087L140.097 42.9439C139.772 45.3123 139.721 47.7103 139.944 50.0904H139.909C135.63 47.8807 131.775 47.769 128.93 49.4087Z" fill="#DAE0E5"/>
<path d="M168.407 92.582V105.382C194.108 120.228 191.663 118.823 192.744 119.323C197.352 121.474 201.56 121.503 204.704 119.687C208.231 117.648 210.452 113.281 210.452 106.963C210.452 93.8221 200.714 77.3661 188.671 71.824C186.185 47.6221 162.183 23.6435 147.567 31.0192C147.461 31.125 141.502 33.5288 140.103 42.9615C139.777 45.3239 139.724 47.7159 139.944 50.0905H139.909C135.631 47.8865 131.775 47.7749 128.931 49.4146C125.886 51.1777 124 54.945 124 60.3166C124 71.0483 131.534 84.0954 140.832 89.4671L157.376 99.0233V74.1279L146.879 68.0686L162.889 56.6728L178.904 86.558L168.407 80.4986V92.582Z" stroke="url(#paint0_linear_131_8630)" stroke-width="1.9508" stroke-linecap="round" stroke-linejoin="round"/>
<path d="M162.495 22.3855C162.366 22.456 162.019 22.6264 161.537 22.9379" stroke="url(#paint1_linear_131_8630)" stroke-width="1.9508" stroke-linecap="round" stroke-linejoin="round"/>
<path d="M204.704 119.687L219.703 111.025C223.229 108.985 225.45 104.618 225.45 98.3006C225.45 85.1593 215.712 68.7093 203.67 63.1672C201.184 38.9652 177.188 14.9807 162.565 22.3565" stroke="url(#paint2_linear_131_8630)" stroke-width="1.9508" stroke-linecap="round" stroke-linejoin="round"/>
<path d="M147.567 31.0194L162.541 22.3683" stroke="#06BFFE" stroke-width="1.9508" stroke-linecap="round" stroke-linejoin="round"/>
<path d="M128.93 49.4087L140.103 42.9615" stroke="#373A3A" stroke-width="1.9508" stroke-linecap="round" stroke-linejoin="round"/>
<path d="M128.93 49.4087L140.103 42.9615" stroke="#0092B1" stroke-width="1.9508" stroke-linecap="round" stroke-linejoin="round"/>
<path d="M40.8742 30.5954L36.7499 34.7198L32.4993 25.7977L28.3749 29.9221L24.1244 21L20 25.1244" stroke="#BED7FB" stroke-width="1.26255" stroke-linecap="round" stroke-linejoin="round"/>
<path d="M312 135.714L320.207 131" stroke="#BED7FB" stroke-width="1.26255" stroke-linecap="round" stroke-linejoin="round"/>
<path d="M320.207 135.714L312 131" stroke="#BED7FB" stroke-width="1.26255" stroke-linecap="round" stroke-linejoin="round"/>
<defs>
<linearGradient id="paint0_linear_131_8630" x1="178.501" y1="24.9996" x2="160.948" y2="122.865" gradientUnits="userSpaceOnUse">
<stop stop-color="#92EAFD"/>
<stop offset="0.468792" stop-color="#1071FE"/>
<stop offset="1" stop-color="#A79EFA"/>
</linearGradient>
<linearGradient id="paint1_linear_131_8630" x1="162.495" y1="22.3855" x2="161.833" y2="23.1833" gradientUnits="userSpaceOnUse">
<stop stop-color="#92EAFD"/>
<stop offset="0.468792" stop-color="#1071FE"/>
<stop offset="1" stop-color="#A79EFA"/>
</linearGradient>
<linearGradient id="paint2_linear_131_8630" x1="182.973" y1="20.9998" x2="125.782" y2="76.9669" gradientUnits="userSpaceOnUse">
<stop stop-color="#06CCFE"/>
<stop offset="0.468792" stop-color="#0051FF"/>
<stop offset="1" stop-color="#00A49C"/>
</linearGradient>
</defs>
</svg>
