<svg width="28" height="29" viewBox="0 0 28 29" fill="none" xmlns="http://www.w3.org/2000/svg">
<path opacity="0.2" d="M22.7506 21.5H5.2506C5.09745 21.4991 4.94723 21.458 4.81494 21.3808C4.68266 21.3036 4.57294 21.1931 4.49677 21.0602C4.4206 20.9274 4.38063 20.7768 4.38086 20.6237C4.38109 20.4705 4.42152 20.3201 4.4981 20.1875C5.21888 18.9406 6.1256 16.6667 6.1256 12.75C6.1256 10.6614 6.95528 8.65838 8.43213 7.18153C9.90898 5.70468 11.912 4.875 14.0006 4.875C16.0892 4.875 18.0922 5.70468 19.5691 7.18153C21.0459 8.65838 21.8756 10.6614 21.8756 12.75C21.8756 16.6678 22.7834 18.9406 23.5053 20.1875C23.582 20.3203 23.6224 20.4709 23.6225 20.6242C23.6226 20.7776 23.5825 20.9282 23.5061 21.0612C23.4296 21.1941 23.3196 21.3046 23.187 21.3816C23.0544 21.4586 22.9039 21.4995 22.7506 21.5Z" fill="#8D929D"/>
<path d="M18.3751 25C18.3751 25.2321 18.2829 25.4547 18.1188 25.6187C17.9547 25.7828 17.7322 25.875 17.5001 25.875H10.5001C10.268 25.875 10.0455 25.7828 9.88138 25.6187C9.71729 25.4547 9.6251 25.2321 9.6251 25C9.6251 24.768 9.71729 24.5454 9.88138 24.3813C10.0455 24.2172 10.268 24.125 10.5001 24.125H17.5001C17.7322 24.125 17.9547 24.2172 18.1188 24.3813C18.2829 24.5454 18.3751 24.768 18.3751 25ZM24.8709 7.09753C23.8875 5.17543 22.4108 3.54928 20.5921 2.38565C20.495 2.32358 20.3865 2.28133 20.2729 2.26132C20.1594 2.24131 20.043 2.24395 19.9304 2.26907C19.8179 2.29419 19.7114 2.34131 19.6172 2.40772C19.5229 2.47412 19.4427 2.5585 19.3812 2.65601C19.3196 2.75352 19.278 2.86222 19.2586 2.97589C19.2392 3.08955 19.2424 3.20592 19.2682 3.31832C19.2939 3.43072 19.3416 3.53692 19.4085 3.63082C19.4754 3.72473 19.5602 3.80448 19.6581 3.8655C21.2184 4.85807 22.4826 6.25259 23.3178 7.90253C23.4281 8.10196 23.612 8.25045 23.8301 8.31641C24.0483 8.38236 24.2836 8.36058 24.486 8.25569C24.6884 8.15081 24.8418 7.97109 24.9137 7.75479C24.9856 7.53849 24.9702 7.30268 24.8709 7.09753ZM3.90588 8.37503C4.06619 8.37496 4.22339 8.33086 4.36034 8.24753C4.49728 8.16421 4.60871 8.04486 4.68245 7.90253C5.51764 6.25259 6.78181 4.85807 8.34213 3.8655C8.43997 3.80448 8.52479 3.72473 8.5917 3.63082C8.65861 3.53692 8.70631 3.43072 8.73204 3.31832C8.75777 3.20592 8.76104 3.08955 8.74164 2.97589C8.72225 2.86222 8.68059 2.75352 8.61904 2.65601C8.5575 2.5585 8.47729 2.47412 8.38302 2.40772C8.28876 2.34131 8.1823 2.29419 8.06976 2.26907C7.95723 2.24395 7.84084 2.24131 7.72728 2.26132C7.61372 2.28133 7.50524 2.32358 7.40807 2.38565C5.58941 3.54928 4.11274 5.17543 3.12932 7.09753C3.06024 7.23088 3.02664 7.37976 3.03176 7.52986C3.03688 7.67995 3.08054 7.8262 3.15855 7.95453C3.23656 8.08287 3.34629 8.18896 3.47718 8.2626C3.60806 8.33625 3.7557 8.37496 3.90588 8.37503ZM24.2606 19.7435C24.4156 20.0093 24.4978 20.3113 24.4988 20.619C24.4999 20.9267 24.4198 21.2293 24.2666 21.4962C24.1134 21.7631 23.8925 21.9848 23.6263 22.1391C23.3601 22.2934 23.0578 22.3748 22.7501 22.375H5.2501C4.94256 22.3744 4.64061 22.2928 4.37467 22.1383C4.10873 21.9839 3.88819 21.7621 3.73526 21.4952C3.58233 21.2284 3.50242 20.926 3.50357 20.6185C3.50472 20.3109 3.5869 20.0091 3.74182 19.7435C4.72729 18.0427 5.2501 15.6244 5.2501 12.75C5.2501 10.4294 6.17197 8.20379 7.81292 6.56284C9.45386 4.9219 11.6795 4.00003 14.0001 4.00003C16.3207 4.00003 18.5463 4.9219 20.1873 6.56284C21.8282 8.20379 22.7501 10.4294 22.7501 12.75C22.7501 15.6233 23.2729 18.0416 24.2606 19.7435ZM22.7501 20.625C21.5864 18.6267 21.0001 15.9777 21.0001 12.75C21.0001 10.8935 20.2626 9.11303 18.9498 7.80028C17.6371 6.48752 15.8566 5.75003 14.0001 5.75003C12.1436 5.75003 10.3631 6.48752 9.05035 7.80028C7.7376 9.11303 7.0001 10.8935 7.0001 12.75C7.0001 15.9788 6.41166 18.6278 5.2501 20.625H22.7501Z" fill="#8D929D"/>
</svg>
