<svg width="28" height="28" viewBox="0 0 28 28" fill="none" xmlns="http://www.w3.org/2000/svg">
<path opacity="0.2" d="M23.625 5.25H4.375C4.14294 5.25 3.92038 5.34219 3.75628 5.50628C3.59219 5.67038 3.5 5.89294 3.5 6.125V18.375C3.5 18.6071 3.59219 18.8296 3.75628 18.9937C3.92038 19.1578 4.14294 19.25 4.375 19.25H23.625C23.8571 19.25 24.0796 19.1578 24.2437 18.9937C24.4078 18.8296 24.5 18.6071 24.5 18.375V6.125C24.5 5.89294 24.4078 5.67038 24.2437 5.50628C24.0796 5.34219 23.8571 5.25 23.625 5.25ZM12.25 15.75V8.75L17.5 12.25L12.25 15.75Z" fill="#8D929D"/>
<path d="M17.9856 11.5216L12.7356 8.02156C12.6038 7.93362 12.4506 7.88312 12.2923 7.87546C12.1341 7.86779 11.9767 7.90324 11.837 7.97803C11.6973 8.05281 11.5806 8.16413 11.4992 8.30009C11.4178 8.43605 11.3749 8.59155 11.375 8.75V15.75C11.3749 15.9085 11.4178 16.064 11.4992 16.1999C11.5806 16.3359 11.6973 16.4472 11.837 16.522C11.9767 16.5968 12.1341 16.6322 12.2923 16.6245C12.4506 16.6169 12.6038 16.5664 12.7356 16.4784L17.9856 12.9784C18.1056 12.8986 18.2041 12.7903 18.2722 12.6632C18.3402 12.5361 18.3759 12.3942 18.3759 12.25C18.3759 12.1058 18.3402 11.9639 18.2722 11.8368C18.2041 11.7097 18.1056 11.6014 17.9856 11.5216ZM13.125 14.1148V10.3906L15.9228 12.25L13.125 14.1148ZM23.625 4.375H4.375C3.91087 4.375 3.46575 4.55937 3.13756 4.88756C2.80937 5.21575 2.625 5.66087 2.625 6.125V18.375C2.625 18.8391 2.80937 19.2842 3.13756 19.6124C3.46575 19.9406 3.91087 20.125 4.375 20.125H23.625C24.0891 20.125 24.5342 19.9406 24.8624 19.6124C25.1906 19.2842 25.375 18.8391 25.375 18.375V6.125C25.375 5.66087 25.1906 5.21575 24.8624 4.88756C24.5342 4.55937 24.0891 4.375 23.625 4.375ZM23.625 18.375H4.375V6.125H23.625V18.375ZM25.375 22.75C25.375 22.9821 25.2828 23.2046 25.1187 23.3687C24.9546 23.5328 24.7321 23.625 24.5 23.625H3.5C3.26794 23.625 3.04538 23.5328 2.88128 23.3687C2.71719 23.2046 2.625 22.9821 2.625 22.75C2.625 22.5179 2.71719 22.2954 2.88128 22.1313C3.04538 21.9672 3.26794 21.875 3.5 21.875H24.5C24.7321 21.875 24.9546 21.9672 25.1187 22.1313C25.2828 22.2954 25.375 22.5179 25.375 22.75Z" fill="#8D929D"/>
</svg>
