<svg width="28" height="28" viewBox="0 0 28 28" fill="none" xmlns="http://www.w3.org/2000/svg">
<path opacity="0.2" d="M23.625 12.7632V23.6252H16.625V16.6252H11.375V23.6252H4.375V12.7632L13.3809 3.75614C13.4622 3.67478 13.5587 3.61024 13.6649 3.56621C13.7712 3.52218 13.885 3.49951 14 3.49951C14.115 3.49951 14.2288 3.52218 14.3351 3.56621C14.4413 3.61024 14.5378 3.67478 14.6191 3.75614L23.625 12.7632Z" fill="url(#paint0_linear_84_4420)"/>
<path d="M26.25 22.7498H24.5V14.8748L24.7559 15.1307C24.9204 15.2949 25.1434 15.387 25.3758 15.3868C25.6082 15.3866 25.831 15.2941 25.9952 15.1296C26.1593 14.9652 26.2515 14.7422 26.2513 14.5098C26.2511 14.2774 26.1585 14.0546 25.9941 13.8904L15.237 3.13667C14.9089 2.80873 14.4639 2.62451 14 2.62451C13.5361 2.62451 13.0911 2.80873 12.763 3.13667L2.00594 13.8904C1.8419 14.0546 1.7498 14.2772 1.7499 14.5093C1.75 14.7414 1.8423 14.964 2.00648 15.128C2.17067 15.292 2.3933 15.3841 2.62539 15.384C2.85748 15.3839 3.08002 15.2916 3.24406 15.1275L3.5 14.8748V22.7498H1.75C1.51794 22.7498 1.29538 22.842 1.13128 23.0061C0.967187 23.1702 0.875 23.3927 0.875 23.6248C0.875 23.8569 0.967187 24.0794 1.13128 24.2435C1.29538 24.4076 1.51794 24.4998 1.75 24.4998H26.25C26.4821 24.4998 26.7046 24.4076 26.8687 24.2435C27.0328 24.0794 27.125 23.8569 27.125 23.6248C27.125 23.3927 27.0328 23.1702 26.8687 23.0061C26.7046 22.842 26.4821 22.7498 26.25 22.7498ZM5.25 13.1248L14 4.37479L22.75 13.1248V22.7498H17.5V16.6248C17.5 16.3927 17.4078 16.1702 17.2437 16.0061C17.0796 15.842 16.8571 15.7498 16.625 15.7498H11.375C11.1429 15.7498 10.9204 15.842 10.7563 16.0061C10.5922 16.1702 10.5 16.3927 10.5 16.6248V22.7498H5.25V13.1248ZM15.75 22.7498H12.25V17.4998H15.75V22.7498Z" fill="url(#paint1_linear_84_4420)"/>
<defs>
<linearGradient id="paint0_linear_84_4420" x1="23.625" y1="3.49951" x2="0.992426" y2="18.5327" gradientUnits="userSpaceOnUse">
<stop stop-color="#92EAFD"/>
<stop offset="0.468792" stop-color="#1071FE"/>
<stop offset="1" stop-color="#A79EFA"/>
</linearGradient>
<linearGradient id="paint1_linear_84_4420" x1="27.125" y1="2.62451" x2="0.874722" y2="24.4995" gradientUnits="userSpaceOnUse">
<stop stop-color="#92EAFD"/>
<stop offset="0.468792" stop-color="#1071FE"/>
<stop offset="1" stop-color="#A79EFA"/>
</linearGradient>
</defs>
</svg>
