<svg width="28" height="28" viewBox="0 0 28 28" fill="none" xmlns="http://www.w3.org/2000/svg">
<path opacity="0.2" d="M24.5 6.125V21.875C24.5 22.1071 24.4078 22.3296 24.2437 22.4937C24.0796 22.6578 23.8571 22.75 23.625 22.75H21.4266C20.8836 21.2143 19.8778 19.8848 18.5478 18.9445C17.2177 18.0043 15.6288 17.4996 14 17.5C14.8653 17.5 15.7112 17.2434 16.4306 16.7627C17.1501 16.2819 17.7108 15.5987 18.042 14.7992C18.3731 13.9998 18.4597 13.1201 18.2909 12.2715C18.1221 11.4228 17.7054 10.6433 17.0936 10.0314C16.4817 9.41955 15.7022 9.00287 14.8535 8.83406C14.0049 8.66525 13.1252 8.75189 12.3258 9.08303C11.5263 9.41416 10.8431 9.97492 10.3623 10.6944C9.88159 11.4138 9.625 12.2597 9.625 13.125C9.625 14.2853 10.0859 15.3981 10.9064 16.2186C11.7269 17.0391 12.8397 17.5 14 17.5C12.3712 17.4996 10.7823 18.0043 9.45222 18.9445C8.12216 19.8848 7.11638 21.2143 6.57344 22.75H4.375C4.14294 22.75 3.92038 22.6578 3.75628 22.4937C3.59219 22.3296 3.5 22.1071 3.5 21.875V6.125C3.5 5.89294 3.59219 5.67038 3.75628 5.50628C3.92038 5.34219 4.14294 5.25 4.375 5.25H23.625C23.8571 5.25 24.0796 5.34219 24.2437 5.50628C24.4078 5.67038 24.5 5.89294 24.5 6.125Z" fill="url(#paint0_linear_84_4387)"/>
<path d="M23.625 4.375H4.375C3.91087 4.375 3.46575 4.55937 3.13756 4.88756C2.80937 5.21575 2.625 5.66087 2.625 6.125V21.875C2.625 22.3391 2.80937 22.7842 3.13756 23.1124C3.46575 23.4406 3.91087 23.625 4.375 23.625H23.625C24.0891 23.625 24.5342 23.4406 24.8624 23.1124C25.1906 22.7842 25.375 22.3391 25.375 21.875V6.125C25.375 5.66087 25.1906 5.21575 24.8624 4.88756C24.5342 4.55937 24.0891 4.375 23.625 4.375ZM10.5 13.125C10.5 12.4328 10.7053 11.7561 11.0899 11.1805C11.4744 10.6049 12.0211 10.1563 12.6606 9.89142C13.3001 9.62651 14.0039 9.5572 14.6828 9.69225C15.3617 9.8273 15.9854 10.1606 16.4749 10.6501C16.9644 11.1396 17.2977 11.7633 17.4327 12.4422C17.5678 13.1211 17.4985 13.8249 17.2336 14.4644C16.9687 15.1039 16.5201 15.6506 15.9445 16.0351C15.3689 16.4197 14.6922 16.625 14 16.625C13.0717 16.625 12.1815 16.2563 11.5251 15.5999C10.8687 14.9435 10.5 14.0533 10.5 13.125ZM7.93734 21.875C8.55166 20.8106 9.43535 19.9268 10.4996 19.3122C11.5638 18.6977 12.7711 18.3742 14 18.3742C15.2289 18.3742 16.4362 18.6977 17.5004 19.3122C18.5646 19.9268 19.4483 20.8106 20.0627 21.875H7.93734ZM23.625 21.875H22.0205C21.0968 19.7657 19.3803 18.1046 17.2419 17.2506C18.1008 16.5763 18.7281 15.651 19.0364 14.6034C19.3447 13.5558 19.3187 12.4382 18.962 11.4061C18.6052 10.374 17.9356 9.47885 17.0462 8.84524C16.1568 8.21164 15.092 7.87113 14 7.87113C12.908 7.87113 11.8432 8.21164 10.9538 8.84524C10.0644 9.47885 9.39475 10.374 9.03803 11.4061C8.6813 12.4382 8.65528 13.5558 8.96359 14.6034C9.2719 15.651 9.89919 16.5763 10.7581 17.2506C8.61968 18.1046 6.90315 19.7657 5.97953 21.875H4.375V6.125H23.625V21.875Z" fill="url(#paint1_linear_84_4387)"/>
<defs>
<linearGradient id="paint0_linear_84_4387" x1="24.5" y1="5.25" x2="3.5" y2="22.75" gradientUnits="userSpaceOnUse">
<stop stop-color="#92EAFD"/>
<stop offset="0.468792" stop-color="#1071FE"/>
<stop offset="1" stop-color="#A79EFA"/>
</linearGradient>
<linearGradient id="paint1_linear_84_4387" x1="25.375" y1="4.375" x2="2.3411" y2="23.2791" gradientUnits="userSpaceOnUse">
<stop stop-color="#92EAFD"/>
<stop offset="0.468792" stop-color="#1071FE"/>
<stop offset="1" stop-color="#A79EFA"/>
</linearGradient>
</defs>
</svg>
