<svg width="11" height="19" viewBox="0 0 11 19" fill="none" xmlns="http://www.w3.org/2000/svg">
<mask id="path-1-outside-1_204_10425" maskUnits="userSpaceOnUse" x="0" y="0" width="11" height="19" fill="black">
<rect fill="white" width="11" height="19"/>
<path d="M6.208 18V3.288H6.184L1.84 7.848V4.32L4.912 1.08H9.208V18H6.208Z"/>
</mask>
<path d="M6.208 18H5.208V19H6.208V18ZM6.208 3.288H7.208V2.288H6.208V3.288ZM6.184 3.288V2.288H5.75551L5.45995 2.59825L6.184 3.288ZM1.84 7.848H0.84V10.3475L2.56405 8.53775L1.84 7.848ZM1.84 4.32L1.11433 3.63196L0.84 3.92129V4.32H1.84ZM4.912 1.08V0.079999H4.48211L4.18633 0.391956L4.912 1.08ZM9.208 1.08H10.208V0.079999H9.208V1.08ZM9.208 18V19H10.208V18H9.208ZM6.208 18H7.208V3.288H6.208H5.208V18H6.208ZM6.208 3.288V2.288H6.184V3.288V4.288H6.208V3.288ZM6.184 3.288L5.45995 2.59825L1.11595 7.15825L1.84 7.848L2.56405 8.53775L6.90805 3.97775L6.184 3.288ZM1.84 7.848H2.84V4.32H1.84H0.84V7.848H1.84ZM1.84 4.32L2.56567 5.00804L5.63767 1.76804L4.912 1.08L4.18633 0.391956L1.11433 3.63196L1.84 4.32ZM4.912 1.08V2.08H9.208V1.08V0.079999H4.912V1.08ZM9.208 1.08H8.208V18H9.208H10.208V1.08H9.208ZM9.208 18V17H6.208V18V19H9.208V18Z" fill="url(#paint0_linear_204_10425)" mask="url(#path-1-outside-1_204_10425)"/>
<defs>
<linearGradient id="paint0_linear_204_10425" x1="6.5" y1="-9" x2="7.97529" y2="26.1137" gradientUnits="userSpaceOnUse">
<stop stop-color="white"/>
<stop offset="1" stop-color="white" stop-opacity="0"/>
</linearGradient>
</defs>
</svg>
