<svg width="16" height="20" viewBox="0 0 16 20" fill="none" xmlns="http://www.w3.org/2000/svg">
<mask id="path-1-outside-1_204_10430" maskUnits="userSpaceOnUse" x="0" y="0" width="16" height="20" fill="black">
<rect fill="white" width="16" height="20"/>
<path d="M2.416 19V15.64L8.368 10.672C8.928 10.192 9.376 9.744 9.712 9.328C10.064 8.912 10.312 8.504 10.456 8.104C10.616 7.688 10.696 7.264 10.696 6.832C10.696 6.08 10.464 5.472 10 5.008C9.536 4.544 8.864 4.312 7.984 4.312C7.104 4.312 6.392 4.568 5.848 5.08C5.32 5.576 4.976 6.296 4.816 7.24L1.936 6.736C2.064 5.696 2.392 4.8 2.92 4.048C3.464 3.296 4.176 2.72 5.056 2.32C5.936 1.904 6.968 1.696 8.152 1.696C9.336 1.696 10.352 1.896 11.2 2.296C12.064 2.68 12.728 3.24 13.192 3.976C13.656 4.696 13.888 5.56 13.888 6.568C13.888 7.304 13.76 8 13.504 8.656C13.264 9.296 12.904 9.92 12.424 10.528C11.944 11.12 11.344 11.712 10.624 12.304L5.8 16.216V16.264H14.512V19H2.416Z"/>
</mask>
<path d="M2.416 19H1.416V20H2.416V19ZM2.416 15.64L1.77521 14.8723L1.416 15.1721V15.64H2.416ZM8.368 10.672L9.00885 11.4398L9.01879 11.4313L8.368 10.672ZM9.712 9.328L8.94861 8.68206L8.94124 8.69078L8.93406 8.69966L9.712 9.328ZM10.456 8.104L9.52265 7.74502L9.51877 7.75511L9.51511 7.76528L10.456 8.104ZM10 5.008L9.29289 5.71511L9.29289 5.71511L10 5.008ZM5.848 5.08L6.53268 5.80885L6.53336 5.8082L5.848 5.08ZM4.816 7.24L4.64362 8.22503L5.63393 8.39833L5.80194 7.40711L4.816 7.24ZM1.936 6.736L0.943489 6.61384L0.827385 7.55719L1.76362 7.72103L1.936 6.736ZM2.92 4.048L2.1097 3.46182L2.10159 3.47337L2.92 4.048ZM5.056 2.32L5.4698 3.23036L5.47661 3.22727L5.48338 3.22407L5.056 2.32ZM11.2 2.296L10.7734 3.20043L10.7836 3.20524L10.7939 3.20981L11.2 2.296ZM13.192 3.976L12.346 4.50933L12.3514 4.5177L13.192 3.976ZM13.504 8.656L12.5723 8.29243L12.5677 8.30488L13.504 8.656ZM12.424 10.528L13.2008 11.1579L13.2089 11.1476L12.424 10.528ZM10.624 12.304L11.2539 13.0807L11.2591 13.0764L10.624 12.304ZM5.8 16.216L5.17014 15.4393L4.8 15.7395V16.216H5.8ZM5.8 16.264H4.8V17.264H5.8V16.264ZM14.512 16.264H15.512V15.264H14.512V16.264ZM14.512 19V20H15.512V19H14.512ZM2.416 19H3.416V15.64H2.416H1.416V19H2.416ZM2.416 15.64L3.05679 16.4077L9.00879 11.4397L8.368 10.672L7.72721 9.90429L1.77521 14.8723L2.416 15.64ZM8.368 10.672L9.01879 11.4313C9.60905 10.9253 10.1043 10.4338 10.4899 9.95634L9.712 9.328L8.93406 8.69966C8.64767 9.05424 8.24695 9.45868 7.71721 9.91274L8.368 10.672ZM9.712 9.328L10.4754 9.97394C10.8837 9.49138 11.2029 8.98151 11.3969 8.44272L10.456 8.104L9.51511 7.76528C9.42108 8.02649 9.24429 8.33262 8.94861 8.68206L9.712 9.328ZM10.456 8.104L11.3893 8.46298C11.592 7.93612 11.696 7.39064 11.696 6.832H10.696H9.696C9.696 7.13736 9.64002 7.43988 9.52265 7.74502L10.456 8.104ZM10.696 6.832H11.696C11.696 5.85682 11.3864 4.9802 10.7071 4.30089L10 5.008L9.29289 5.71511C9.54159 5.9638 9.696 6.30318 9.696 6.832H10.696ZM10 5.008L10.7071 4.30089C9.99857 3.59236 9.03596 3.312 7.984 3.312V4.312V5.312C8.69204 5.312 9.07343 5.49564 9.29289 5.71511L10 5.008ZM7.984 4.312V3.312C6.89762 3.312 5.92458 3.63467 5.16264 4.3518L5.848 5.08L6.53336 5.8082C6.85942 5.50132 7.31038 5.312 7.984 5.312V4.312ZM5.848 5.08L5.16332 4.35115C4.43191 5.03824 4.01482 5.98281 3.83006 7.07289L4.816 7.24L5.80194 7.40711C5.93718 6.60919 6.20809 6.11376 6.53268 5.80885L5.848 5.08ZM4.816 7.24L4.98838 6.25497L2.10838 5.75097L1.936 6.736L1.76362 7.72103L4.64362 8.22503L4.816 7.24ZM1.936 6.736L2.92851 6.85815C3.03931 5.95789 3.3172 5.22254 3.73841 4.62263L2.92 4.048L2.10159 3.47337C1.4668 4.37746 1.08869 5.43411 0.943489 6.61384L1.936 6.736ZM2.92 4.048L3.73022 4.63412C4.16816 4.02874 4.74102 3.56163 5.4698 3.23036L5.056 2.32L4.6422 1.40963C3.61098 1.87837 2.75984 2.56326 2.10978 3.46188L2.92 4.048ZM5.056 2.32L5.48338 3.22407C6.20401 2.88341 7.0844 2.696 8.152 2.696V1.696V0.695999C6.8516 0.695999 5.66799 0.92459 4.62862 1.41593L5.056 2.32ZM8.152 1.696V2.696C9.22608 2.696 10.0891 2.87764 10.7734 3.20043L11.2 2.296L11.6266 1.39157C10.6149 0.914355 9.44592 0.695999 8.152 0.695999V1.696ZM11.2 2.296L10.7939 3.20981C11.4932 3.52064 11.9969 3.95548 12.3461 4.5093L13.192 3.976L14.0379 3.4427C13.4591 2.52452 12.6348 1.83936 11.6061 1.38219L11.2 2.296ZM13.192 3.976L12.3514 4.5177C12.6941 5.04941 12.888 5.71757 12.888 6.568H13.888H14.888C14.888 5.40243 14.6179 4.34259 14.0326 3.4343L13.192 3.976ZM13.888 6.568H12.888C12.888 7.18532 12.7812 7.75753 12.5724 8.29246L13.504 8.656L14.4356 9.01954C14.7388 8.24247 14.888 7.42268 14.888 6.568H13.888ZM13.504 8.656L12.5677 8.30488C12.3684 8.83615 12.0635 9.37085 11.6391 9.90836L12.424 10.528L13.2089 11.1476C13.7445 10.4692 14.1596 9.75585 14.4403 9.00712L13.504 8.656ZM12.424 10.528L11.6472 9.8982C11.2177 10.428 10.668 10.9732 9.9889 11.5316L10.624 12.304L11.2591 13.0764C12.02 12.4508 12.6703 11.812 13.2008 11.1578L12.424 10.528ZM10.624 12.304L9.99414 11.5273L5.17014 15.4393L5.8 16.216L6.42986 16.9927L11.2539 13.0807L10.624 12.304ZM5.8 16.216H4.8V16.264H5.8H6.8V16.216H5.8ZM5.8 16.264V17.264H14.512V16.264V15.264H5.8V16.264ZM14.512 16.264H13.512V19H14.512H15.512V16.264H14.512ZM14.512 19V18H2.416V19V20H14.512V19Z" fill="url(#paint0_linear_204_10430)" mask="url(#path-1-outside-1_204_10430)"/>
<defs>
<linearGradient id="paint0_linear_204_10430" x1="8.5" y1="-8" x2="9.58276" y2="27.1423" gradientUnits="userSpaceOnUse">
<stop stop-color="white"/>
<stop offset="1" stop-color="white" stop-opacity="0"/>
</linearGradient>
</defs>
</svg>
