<svg width="16" height="21" viewBox="0 0 16 21" fill="none" xmlns="http://www.w3.org/2000/svg">
<mask id="path-1-outside-1_204_10435" maskUnits="userSpaceOnUse" x="0" y="0" width="16" height="21" fill="black">
<rect fill="white" width="16" height="21"/>
<path d="M8.392 19.408C6.728 19.408 5.328 19.024 4.192 18.256C3.072 17.488 2.304 16.384 1.888 14.944L4.744 14.056C5 14.984 5.448 15.672 6.088 16.12C6.728 16.568 7.528 16.792 8.488 16.792C9.48 16.792 10.232 16.528 10.744 16C11.272 15.472 11.536 14.792 11.536 13.96C11.536 13.064 11.216 12.384 10.576 11.92C9.936 11.456 9.032 11.224 7.864 11.224H6.472V9.472H10.312V9.784C11.656 9.88 12.704 10.328 13.456 11.128C14.208 11.928 14.584 12.952 14.584 14.2C14.584 15.224 14.328 16.128 13.816 16.912C13.32 17.696 12.608 18.312 11.68 18.76C10.752 19.192 9.656 19.408 8.392 19.408ZM6.472 10.24V8.8H7.96C8.952 8.8 9.72 8.6 10.264 8.2C10.808 7.8 11.08 7.224 11.08 6.472C11.08 5.816 10.856 5.288 10.408 4.888C9.976 4.488 9.312 4.288 8.416 4.288C7.648 4.288 6.984 4.456 6.424 4.792C5.864 5.128 5.456 5.64 5.2 6.328L2.416 5.44C2.688 4.64 3.104 3.96 3.664 3.4C4.224 2.824 4.896 2.4 5.68 2.128C6.48 1.84 7.36 1.696 8.32 1.696C9.52 1.696 10.536 1.872 11.368 2.224C12.216 2.576 12.856 3.08 13.288 3.736C13.72 4.392 13.936 5.168 13.936 6.064C13.936 6.88 13.728 7.608 13.312 8.248C12.912 8.872 12.352 9.36 11.632 9.712C10.912 10.064 10.112 10.24 9.232 10.24H6.472Z"/>
</mask>
<path d="M4.192 18.256L3.62646 19.0807L3.63193 19.0844L4.192 18.256ZM1.888 14.944L1.5911 13.9891L0.655301 14.2801L0.927286 15.2215L1.888 14.944ZM4.744 14.056L5.70799 13.7901L5.43334 12.7944L4.4471 13.1011L4.744 14.056ZM6.088 16.12L6.66146 15.3008H6.66146L6.088 16.12ZM10.744 16L10.0369 15.2929L10.0315 15.2983L10.0261 15.3039L10.744 16ZM10.576 11.92L11.163 11.1104H11.163L10.576 11.92ZM6.472 11.224H5.472V12.224H6.472V11.224ZM6.472 9.472V8.472H5.472V9.472H6.472ZM10.312 9.472H11.312V8.472H10.312V9.472ZM10.312 9.784H9.312V10.7151L10.2408 10.7815L10.312 9.784ZM13.456 11.128L14.1846 10.4431L13.456 11.128ZM13.816 16.912L12.9787 16.3652L12.9748 16.3713L12.9709 16.3774L13.816 16.912ZM11.68 18.76L12.1021 19.6667L12.1147 19.6606L11.68 18.76ZM6.472 10.24H5.472V11.24H6.472V10.24ZM6.472 8.8V7.8H5.472V8.8H6.472ZM10.264 8.2L9.67161 7.39435V7.39435L10.264 8.2ZM10.408 4.888L9.72859 5.62176L9.73523 5.62791L9.74199 5.63394L10.408 4.888ZM6.424 4.792L6.9385 5.64949L6.9385 5.64949L6.424 4.792ZM5.2 6.328L4.89612 7.28071L5.80466 7.5705L6.13722 6.67673L5.2 6.328ZM2.416 5.44L1.46923 5.1181L1.14116 6.08301L2.11212 6.39271L2.416 5.44ZM3.664 3.4L4.37118 4.10718L4.381 4.09708L3.664 3.4ZM5.68 2.128L6.00779 3.07282L6.01872 3.06889L5.68 2.128ZM11.368 2.224L10.9784 3.14499L10.9846 3.14759L11.368 2.224ZM13.312 8.248L12.4735 7.703L12.4701 7.70833L13.312 8.248ZM11.632 9.712L11.1928 8.81362H11.1928L11.632 9.712ZM8.392 19.408V18.408C6.88446 18.408 5.69022 18.0618 4.75207 17.4276L4.192 18.256L3.63193 19.0844C4.96578 19.9862 6.57154 20.408 8.392 20.408V19.408ZM4.192 18.256L4.75753 17.4313C3.84883 16.8082 3.2075 15.9084 2.84871 14.6665L1.888 14.944L0.927286 15.2215C1.4005 16.8596 2.29517 18.1678 3.62647 19.0807L4.192 18.256ZM1.888 14.944L2.1849 15.8989L5.0409 15.0109L4.744 14.056L4.4471 13.1011L1.5911 13.9891L1.888 14.944ZM4.744 14.056L3.78001 14.3219C4.08303 15.4204 4.64279 16.329 5.51454 16.9392L6.088 16.12L6.66146 15.3008C6.25321 15.015 5.91697 14.5476 5.70799 13.7901L4.744 14.056ZM6.088 16.12L5.51454 16.9392C6.35777 17.5295 7.37037 17.792 8.488 17.792V16.792V15.792C7.68563 15.792 7.09823 15.6065 6.66146 15.3008L6.088 16.12ZM8.488 16.792V17.792C9.653 17.792 10.703 17.4787 11.4619 16.6961L10.744 16L10.0261 15.3039C9.76098 15.5773 9.307 15.792 8.488 15.792V16.792ZM10.744 16L11.4511 16.7071C12.1889 15.9694 12.536 15.0241 12.536 13.96H11.536H10.536C10.536 14.5599 10.3551 14.9746 10.0369 15.2929L10.744 16ZM11.536 13.96H12.536C12.536 12.7928 12.0999 11.7896 11.163 11.1104L10.576 11.92L9.98903 12.7296C10.3321 12.9784 10.536 13.3352 10.536 13.96H11.536ZM10.576 11.92L11.163 11.1104C10.2883 10.4762 9.14695 10.224 7.864 10.224V11.224V12.224C8.91705 12.224 9.58372 12.4358 9.98903 12.7296L10.576 11.92ZM7.864 11.224V10.224H6.472V11.224V12.224H7.864V11.224ZM6.472 11.224H7.472V9.472H6.472H5.472V11.224H6.472ZM6.472 9.472V10.472H10.312V9.472V8.472H6.472V9.472ZM10.312 9.472H9.312V9.784H10.312H11.312V9.472H10.312ZM10.312 9.784L10.2408 10.7815C11.3939 10.8638 12.1845 11.2354 12.7274 11.8129L13.456 11.128L14.1846 10.4431C13.2235 9.4206 11.9181 8.89617 10.3832 8.78654L10.312 9.784ZM13.456 11.128L12.7274 11.8129C13.281 12.4018 13.584 13.169 13.584 14.2H14.584H15.584C15.584 12.735 15.135 11.4542 14.1846 10.4431L13.456 11.128ZM14.584 14.2H13.584C13.584 15.0487 13.3747 15.759 12.9787 16.3652L13.816 16.912L14.6533 17.4588C15.2813 16.497 15.584 15.3993 15.584 14.2H14.584ZM13.816 16.912L12.9709 16.3774C12.5857 16.9863 12.0242 17.4834 11.2453 17.8594L11.68 18.76L12.1147 19.6606C13.1918 19.1406 14.0543 18.4057 14.6611 17.4466L13.816 16.912ZM11.68 18.76L11.258 17.8534C10.4894 18.2112 9.54362 18.408 8.392 18.408V19.408V20.408C9.76838 20.408 11.0146 20.1728 12.102 19.6666L11.68 18.76ZM6.472 10.24H7.472V8.8H6.472H5.472V10.24H6.472ZM6.472 8.8V9.8H7.96V8.8V7.8H6.472V8.8ZM7.96 8.8V9.8C9.06954 9.8 10.077 9.57871 10.8564 9.00565L10.264 8.2L9.67161 7.39435C9.36298 7.62129 8.83446 7.8 7.96 7.8V8.8ZM10.264 8.2L10.8564 9.00565C11.6885 8.39378 12.08 7.50035 12.08 6.472H11.08H10.08C10.08 6.94765 9.92747 7.20622 9.67161 7.39435L10.264 8.2ZM11.08 6.472H12.08C12.08 5.56061 11.7555 4.75057 11.074 4.14206L10.408 4.888L9.74199 5.63394C9.95645 5.82543 10.08 6.07139 10.08 6.472H11.08ZM10.408 4.888L11.0874 4.15424C10.3944 3.51256 9.43621 3.288 8.416 3.288V4.288V5.288C9.18779 5.288 9.5576 5.46343 9.72859 5.62176L10.408 4.888ZM8.416 4.288V3.288C7.499 3.288 6.65042 3.48996 5.9095 3.93451L6.424 4.792L6.9385 5.64949C7.31758 5.42204 7.79701 5.288 8.416 5.288V4.288ZM6.424 4.792L5.9095 3.93451C5.1309 4.40167 4.58752 5.10653 4.26278 5.97927L5.2 6.328L6.13722 6.67673C6.32448 6.17347 6.59711 5.85433 6.9385 5.64949L6.424 4.792ZM5.2 6.328L5.50388 5.37529L2.71988 4.48729L2.416 5.44L2.11212 6.39271L4.89612 7.28071L5.2 6.328ZM2.416 5.44L3.36277 5.7619C3.58883 5.09703 3.92664 4.55158 4.37111 4.10711L3.664 3.4L2.95689 2.69289C2.28136 3.36842 1.78717 4.18297 1.46923 5.1181L2.416 5.44ZM3.664 3.4L4.381 4.09708C4.82869 3.63659 5.36603 3.2954 6.00777 3.07276L5.68 2.128L5.35223 1.18324C4.42597 1.5046 3.61931 2.01141 2.94701 2.70292L3.664 3.4ZM5.68 2.128L6.01872 3.06889C6.69701 2.8247 7.46072 2.696 8.32 2.696V1.696V0.695999C7.25928 0.695999 6.26299 0.855296 5.34128 1.18711L5.68 2.128ZM8.32 1.696V2.696C9.42778 2.696 10.3029 2.85921 10.9784 3.14497L11.368 2.224L11.7576 1.30303C10.7691 0.884788 9.61222 0.695999 8.32 0.695999V1.696ZM11.368 2.224L10.9846 3.14759C11.68 3.43625 12.1483 3.82358 12.4528 4.28599L13.288 3.736L14.1232 3.18601C13.5637 2.33641 12.752 1.71575 11.7514 1.30041L11.368 2.224ZM13.288 3.736L12.4528 4.28599C12.7627 4.75657 12.936 5.33518 12.936 6.064H13.936H14.936C14.936 5.00082 14.6773 4.02743 14.1232 3.18601L13.288 3.736ZM13.936 6.064H12.936C12.936 6.70051 12.7768 7.23656 12.4736 7.70301L13.312 8.248L14.1504 8.79299C14.6792 7.97944 14.936 7.05949 14.936 6.064H13.936ZM13.312 8.248L12.4701 7.70833C12.177 8.16565 11.7621 8.53528 11.1928 8.81362L11.632 9.712L12.0712 10.6104C12.9419 10.1847 13.647 9.57835 14.1539 8.78767L13.312 8.248ZM11.632 9.712L11.1928 8.81362C10.6225 9.09241 9.97491 9.24 9.232 9.24V10.24V11.24C10.2491 11.24 11.2015 11.0356 12.0712 10.6104L11.632 9.712ZM9.232 10.24V9.24H6.472V10.24V11.24H9.232V10.24Z" fill="url(#paint0_linear_204_10435)" mask="url(#path-1-outside-1_204_10435)"/>
<defs>
<linearGradient id="paint0_linear_204_10435" x1="8.5" y1="-8" x2="9.58276" y2="27.1423" gradientUnits="userSpaceOnUse">
<stop stop-color="white"/>
<stop offset="1" stop-color="white" stop-opacity="0"/>
</linearGradient>
</defs>
</svg>
