<svg width="20" height="20" viewBox="0 0 20 20" fill="none" xmlns="http://www.w3.org/2000/svg">
<path opacity="0.2" d="M17.3363 4.79531L11.8753 10.625V15.207C11.8754 15.31 11.85 15.4113 11.8015 15.5021C11.753 15.5928 11.6828 15.6702 11.5972 15.7273L9.09721 17.3938C9.00317 17.4565 8.89388 17.4926 8.78097 17.4981C8.66806 17.5036 8.55576 17.4784 8.45603 17.4252C8.3563 17.372 8.27288 17.2927 8.21464 17.1958C8.15641 17.0989 8.12554 16.988 8.12533 16.875V10.625L2.66439 4.79531C2.58307 4.70581 2.52945 4.59464 2.51005 4.47527C2.49065 4.35591 2.50629 4.23348 2.55508 4.12283C2.60388 4.01218 2.68372 3.91806 2.78494 3.85188C2.88616 3.7857 3.0044 3.75031 3.12533 3.75H16.8753C16.9963 3.75031 17.1145 3.7857 17.2157 3.85188C17.3169 3.91806 17.3968 4.01218 17.4456 4.12283C17.4944 4.23348 17.51 4.35591 17.4906 4.47527C17.4712 4.59464 17.4176 4.70581 17.3363 4.79531Z" fill="#081539"/>
<path d="M18.0161 3.86952C17.9199 3.64726 17.7605 3.45819 17.5577 3.32581C17.3549 3.19344 17.1176 3.1236 16.8755 3.12499H3.12547C2.88354 3.12547 2.64695 3.19614 2.44439 3.32843C2.24184 3.46073 2.08203 3.64896 1.98435 3.87029C1.88667 4.09162 1.85531 4.33655 1.89409 4.57535C1.93287 4.81415 2.04011 5.03656 2.20281 5.21561L2.20906 5.22265L7.50047 10.8726V16.875C7.50041 17.1012 7.56176 17.3232 7.67796 17.5173C7.79417 17.7114 7.96087 17.8704 8.1603 17.9772C8.35973 18.084 8.58441 18.1347 8.81038 18.1238C9.03636 18.113 9.25515 18.041 9.44344 17.9156L11.9434 16.2484C12.1148 16.1343 12.2553 15.9795 12.3525 15.798C12.4497 15.6165 12.5005 15.4137 12.5005 15.2078V10.8726L17.7927 5.22265L17.7989 5.21561C17.9633 5.03738 18.0716 4.81467 18.1102 4.57528C18.1488 4.33589 18.1161 4.09042 18.0161 3.86952ZM11.4208 10.2016C11.3127 10.3162 11.2518 10.4674 11.2505 10.625V15.2078L8.75047 16.875V10.625C8.75052 10.4663 8.69018 10.3135 8.58172 10.1976L3.12547 4.37499H16.8755L11.4208 10.2016Z" fill="#081539"/>
</svg>
