<svg width="40" height="40" viewBox="0 0 40 40" fill="none" xmlns="http://www.w3.org/2000/svg">
<path d="M31.6667 18.3333C31.6667 16.9708 31.6667 15.7177 31.413 15.1051C31.1592 14.4925 30.6775 14.0108 29.714 13.0474L21.8198 5.15314C20.9883 4.32168 20.5727 3.90593 20.0575 3.65959C19.9503 3.60834 19.8407 3.56288 19.7287 3.52336C19.1902 3.33334 18.6023 3.33334 17.4263 3.33334C12.018 3.33334 9.31385 3.33334 7.48222 4.81013C7.11218 5.10848 6.77513 5.44553 6.47678 5.81556C5 7.64719 5 10.3514 5 15.7597V23.3333C5 29.6187 5 32.7615 6.95262 34.714C8.90525 36.6667 12.0479 36.6667 18.3333 36.6667H31.6667M20 4.16668V5.00001C20 9.71406 20 12.0711 21.4645 13.5355C22.929 15 25.286 15 30 15H30.8333" stroke="#44474F" stroke-width="2" stroke-linecap="round" stroke-linejoin="round"/>
<path d="M35.0001 23.3333H31.6667C30.7462 23.3333 30.0001 24.0795 30.0001 25V27.5M30.0001 27.5V31.6667M30.0001 27.5H34.1667M11.6667 31.6667V28.3333M11.6667 28.3333V23.3333H14.1667C15.5475 23.3333 16.6667 24.4527 16.6667 25.8333C16.6667 27.214 15.5475 28.3333 14.1667 28.3333H11.6667ZM20.8334 23.3333H22.9762C24.5542 23.3333 25.8334 24.577 25.8334 26.1112V28.8888C25.8334 30.423 24.5542 31.6667 22.9762 31.6667H20.8334V23.3333Z" stroke="#44474F" stroke-width="2" stroke-linecap="round" stroke-linejoin="round"/>
</svg>
