<svg width="24" height="24" viewBox="0 0 24 24" fill="none" xmlns="http://www.w3.org/2000/svg">
<path fill-rule="evenodd" clip-rule="evenodd" d="M11.0228 2.22727C11.0228 1.68754 11.4603 1.25 12 1.25C17.938 1.25 22.75 6.06364 22.75 12C22.75 17.9364 17.938 22.75 12 22.75C11.4603 22.75 11.0228 22.3125 11.0228 21.7727C11.0228 21.233 11.4603 20.7955 12 20.7955C16.8583 20.7955 20.7954 16.8571 20.7954 12C20.7954 7.14292 16.8583 3.20455 12 3.20455C11.4603 3.20455 11.0228 2.76701 11.0228 2.22727ZM9.99337 2.40084C10.1673 2.91175 9.89427 3.46699 9.38336 3.641C8.32104 4.00281 7.32644 4.53454 6.46431 5.20245C6.03764 5.533 5.42381 5.45508 5.09326 5.02841C4.76272 4.60174 4.84064 3.98789 5.26731 3.65734C6.30556 2.85298 7.49286 2.22008 8.75323 1.79082C9.26414 1.61681 9.81936 1.88993 9.99337 2.40084ZM4.01041 6.22587C4.46875 6.51088 4.60925 7.11349 4.32423 7.57183C3.76383 8.47304 3.37603 9.45814 3.18813 10.4652C3.08913 10.9958 2.57876 11.3457 2.04819 11.2467C1.51762 11.1477 1.16776 10.6373 1.26676 10.1067C1.50115 8.85047 1.9814 7.63814 2.66445 6.5397C2.94947 6.08136 3.55207 5.94085 4.01041 6.22587ZM2.04819 12.7533C2.57876 12.6543 3.08913 13.0042 3.18813 13.5348C3.37603 14.5419 3.76383 15.527 4.32423 16.4282C4.60925 16.8865 4.46875 17.4891 4.01041 17.7741C3.55208 18.0592 2.94947 17.9186 2.66445 17.4603C1.9814 16.3619 1.50115 15.1495 1.26676 13.8933C1.16776 13.3627 1.51762 12.8523 2.04819 12.7533ZM5.09758 18.9661C5.43119 18.5418 6.04558 18.4683 6.46986 18.8019C7.32501 19.4743 8.31606 19.9955 9.38336 20.359C9.89427 20.533 10.1673 21.0882 9.99337 21.5992C9.81936 22.1101 9.26414 22.3832 8.75323 22.2092C7.49783 21.7816 6.30701 21.1602 5.26177 20.3383C4.83749 20.0047 4.76398 19.3903 5.09758 18.9661Z" fill="#8D929D"/>
<path d="M8.75 8.5C8.75 6.70507 10.205 5.25 12 5.25C13.7949 5.25 15.25 6.70507 15.25 8.5C15.25 9.78669 14.5022 10.8987 13.4176 11.4253C15.8721 12.0477 17.6971 14.2487 17.7488 16.8845C17.7528 17.0859 17.6756 17.2804 17.5346 17.4243C16.1289 18.8582 14.1678 19.7493 12 19.7493C9.83216 19.7493 7.8711 18.8582 6.4654 17.4243C6.32439 17.2804 6.24717 17.0859 6.25112 16.8845C6.30284 14.2487 8.12785 12.0477 10.5823 11.4253C9.49772 10.8987 8.75 9.78669 8.75 8.5Z" fill="#8D929D"/>
</svg>
