<svg width="16" height="16" viewBox="0 0 16 16" fill="none" xmlns="http://www.w3.org/2000/svg">
<g clip-path="url(#clip0_131_16386)">
<path opacity="0.2" d="M12.1761 9.46437L8.73297 10.7331L7.46422 14.1762C7.42917 14.2712 7.36587 14.3531 7.28284 14.411C7.19981 14.4688 7.10104 14.4998 6.99984 14.4998C6.89864 14.4998 6.79987 14.4688 6.71684 14.411C6.63381 14.3531 6.57051 14.2712 6.53547 14.1762L5.26672 10.7331L1.82359 9.46437C1.72865 9.42933 1.64673 9.36602 1.58888 9.28299C1.53102 9.19996 1.5 9.10119 1.5 8.99999C1.5 8.89879 1.53102 8.80002 1.58888 8.71699C1.64673 8.63396 1.72865 8.57066 1.82359 8.53562L5.26672 7.26687L6.53547 3.82374C6.57051 3.7288 6.63381 3.64689 6.71684 3.58903C6.79987 3.53117 6.89864 3.50015 6.99984 3.50015C7.10104 3.50015 7.19981 3.53117 7.28284 3.58903C7.36587 3.64689 7.42917 3.7288 7.46422 3.82374L8.73297 7.26687L12.1761 8.53562C12.271 8.57066 12.3529 8.63396 12.4108 8.71699C12.4687 8.80002 12.4997 8.89879 12.4997 8.99999C12.4997 9.10119 12.4687 9.19996 12.4108 9.28299C12.3529 9.36602 12.271 9.42933 12.1761 9.46437Z" fill="white"/>
<path d="M12.3484 8.06625L9.12461 6.875L7.93711 3.64875C7.86679 3.45771 7.73956 3.29283 7.57259 3.17637C7.40561 3.0599 7.20694 2.99746 7.00336 2.99746C6.79979 2.99746 6.60111 3.0599 6.43414 3.17637C6.26716 3.29283 6.13993 3.45771 6.06961 3.64875L4.87461 6.875L1.64836 8.0625C1.45732 8.13282 1.29244 8.26005 1.17598 8.42702C1.05951 8.594 0.99707 8.79267 0.99707 8.99625C0.99707 9.19983 1.05951 9.3985 1.17598 9.56548C1.29244 9.73245 1.45732 9.85968 1.64836 9.93L4.87461 11.125L6.06211 14.3512C6.13243 14.5423 6.25966 14.7072 6.42664 14.8236C6.59361 14.9401 6.79229 15.0025 6.99586 15.0025C7.19944 15.0025 7.39811 14.9401 7.56509 14.8236C7.73206 14.7072 7.85929 14.5423 7.92961 14.3512L9.12461 11.125L12.3509 9.9375C12.5419 9.86718 12.7068 9.73995 12.8232 9.57298C12.9397 9.406 13.0022 9.20733 13.0022 9.00375C13.0022 8.80017 12.9397 8.6015 12.8232 8.43452C12.7068 8.26755 12.5419 8.14032 12.3509 8.07L12.3484 8.06625ZM8.56211 10.2638C8.49424 10.2888 8.43261 10.3282 8.38146 10.3793C8.33031 10.4305 8.29087 10.4921 8.26586 10.56L6.99961 13.9906L5.73586 10.5625C5.71089 10.4939 5.6712 10.4316 5.61959 10.38C5.56798 10.3284 5.5057 10.2887 5.43711 10.2638L2.00899 9L5.43711 7.73625C5.5057 7.71128 5.56798 7.67159 5.61959 7.61998C5.6712 7.56837 5.71089 7.50608 5.73586 7.4375L6.99961 4.00938L8.26336 7.4375C8.28837 7.50537 8.32781 7.567 8.37896 7.61815C8.43011 7.6693 8.49174 7.70874 8.55961 7.73375L11.9902 9L8.56211 10.2638ZM8.99961 2.5C8.99961 2.36739 9.05229 2.24021 9.14606 2.14645C9.23983 2.05268 9.367 2 9.49961 2H10.4996V1C10.4996 0.867392 10.5523 0.740215 10.6461 0.646447C10.7398 0.552678 10.867 0.5 10.9996 0.5C11.1322 0.5 11.2594 0.552678 11.3532 0.646447C11.4469 0.740215 11.4996 0.867392 11.4996 1V2H12.4996C12.6322 2 12.7594 2.05268 12.8532 2.14645C12.9469 2.24021 12.9996 2.36739 12.9996 2.5C12.9996 2.63261 12.9469 2.75979 12.8532 2.85355C12.7594 2.94732 12.6322 3 12.4996 3H11.4996V4C11.4996 4.13261 11.4469 4.25979 11.3532 4.35355C11.2594 4.44732 11.1322 4.5 10.9996 4.5C10.867 4.5 10.7398 4.44732 10.6461 4.35355C10.5523 4.25979 10.4996 4.13261 10.4996 4V3H9.49961C9.367 3 9.23983 2.94732 9.14606 2.85355C9.05229 2.75979 8.99961 2.63261 8.99961 2.5ZM15.4996 5.5C15.4996 5.63261 15.4469 5.75979 15.3532 5.85355C15.2594 5.94732 15.1322 6 14.9996 6H14.4996V6.5C14.4996 6.63261 14.4469 6.75979 14.3532 6.85355C14.2594 6.94732 14.1322 7 13.9996 7C13.867 7 13.7398 6.94732 13.6461 6.85355C13.5523 6.75979 13.4996 6.63261 13.4996 6.5V6H12.9996C12.867 6 12.7398 5.94732 12.6461 5.85355C12.5523 5.75979 12.4996 5.63261 12.4996 5.5C12.4996 5.36739 12.5523 5.24021 12.6461 5.14645C12.7398 5.05268 12.867 5 12.9996 5H13.4996V4.5C13.4996 4.36739 13.5523 4.24021 13.6461 4.14645C13.7398 4.05268 13.867 4 13.9996 4C14.1322 4 14.2594 4.05268 14.3532 4.14645C14.4469 4.24021 14.4996 4.36739 14.4996 4.5V5H14.9996C15.1322 5 15.2594 5.05268 15.3532 5.14645C15.4469 5.24021 15.4996 5.36739 15.4996 5.5Z" fill="white"/>
</g>
<defs>
<clipPath id="clip0_131_16386">
<rect width="16" height="16" fill="white"/>
</clipPath>
</defs>
</svg>
