<svg width="24" height="30" viewBox="0 0 24 30" fill="none" xmlns="http://www.w3.org/2000/svg">
<g clip-path="url(#clip0_141_29255)">
<path d="M19.8448 15.6707C19.8853 20.0209 23.6611 21.4685 23.7029 21.487C23.6709 21.589 23.0995 23.5499 21.7136 25.5753C20.5156 27.3264 19.272 29.071 17.3132 29.1072C15.3886 29.1426 14.7696 27.9659 12.5691 27.9659C10.3693 27.9659 9.68164 29.071 7.85966 29.1426C5.96891 29.2142 4.5291 27.2492 3.32114 25.5044C0.852572 21.9357 -1.03387 15.4198 1.49915 11.0216C2.75749 8.83736 5.00635 7.45432 7.44713 7.41884C9.30377 7.38346 11.0563 8.66794 12.1913 8.66794C13.3255 8.66794 15.4552 7.12325 17.694 7.35009C18.6311 7.38913 21.2621 7.7286 22.9514 10.2014C22.8152 10.2858 19.8122 12.034 19.8448 15.6708M16.2277 4.98904C17.2315 3.77395 17.9071 2.08252 17.7228 0.399414C16.2758 0.457563 14.5263 1.36362 13.4884 2.57797C12.5583 3.65345 11.7437 5.37468 11.9635 7.02442C13.5763 7.14922 15.2238 6.20485 16.2277 4.98904Z" fill="black"/>
</g>
<defs>
<clipPath id="clip0_141_29255">
<rect width="23.4057" height="28.8" fill="white" transform="translate(0.297119 0.399902)"/>
</clipPath>
</defs>
</svg>
