<svg width="30" height="30" viewBox="0 0 30 30" fill="none" xmlns="http://www.w3.org/2000/svg">
<g clip-path="url(#clip0_141_29248)">
<path d="M10.6332 1.54722C7.75567 2.54548 5.27406 4.4402 3.55292 6.95308C1.83177 9.46596 0.961819 12.4645 1.07083 15.5084C1.17985 18.5522 2.26209 21.4809 4.15859 23.8642C6.05509 26.2475 8.66588 27.9599 11.6075 28.7497C13.9923 29.3651 16.4909 29.3921 18.8885 28.8285C21.0605 28.3406 23.0685 27.297 24.716 25.8C26.4307 24.1943 27.6753 22.1515 28.316 19.8915C29.0124 17.4337 29.1363 14.8491 28.6782 12.336H15.2862V17.8912H23.042C22.887 18.7772 22.5548 19.6229 22.0654 20.3775C21.5759 21.1322 20.9393 21.7804 20.1935 22.2832C19.2464 22.9097 18.1788 23.3312 17.0592 23.5207C15.9364 23.7295 14.7846 23.7295 13.6617 23.5207C12.5237 23.2854 11.4471 22.8157 10.5005 22.1415C8.97982 21.065 7.83801 19.5358 7.23799 17.772C6.62782 15.9751 6.62782 14.0271 7.23799 12.2302C7.6651 10.9707 8.37116 9.82393 9.30349 8.87547C10.3704 7.77015 11.7212 6.98006 13.2076 6.59189C14.694 6.20372 16.2586 6.23247 17.7297 6.67497C18.879 7.02775 19.9299 7.64413 20.7987 8.47497C21.6732 7.60497 22.5462 6.73272 23.4177 5.85822C23.8677 5.38797 24.3582 4.94022 24.8015 4.45872C23.4753 3.22454 21.9185 2.2642 20.2205 1.63272C17.1283 0.509948 13.7449 0.479775 10.6332 1.54722Z" fill="white"/>
<path d="M10.6329 1.54831C13.7443 0.480143 17.1277 0.509522 20.2201 1.63156C21.9184 2.26733 23.4745 3.2323 24.7989 4.47106C24.3489 4.95256 23.8741 5.40256 23.4151 5.87056C22.5421 6.74206 21.6699 7.61056 20.7984 8.47606C19.9295 7.64522 18.8786 7.02885 17.7294 6.67606C16.2587 6.23201 14.6941 6.2016 13.2073 6.58819C11.7206 6.97477 10.369 7.7634 9.30085 8.86757C8.36853 9.81602 7.66246 10.9628 7.23536 12.2223L2.57111 8.61106C4.24062 5.30033 7.13129 2.76787 10.6329 1.54831Z" fill="#E33629"/>
<path d="M1.33368 12.1879C1.58438 10.9454 2.00059 9.74216 2.57118 8.61035L7.23543 12.2306C6.62526 14.0275 6.62526 15.9755 7.23543 17.7724C5.68143 18.9724 4.12668 20.1784 2.57118 21.3904C1.14277 18.5471 0.70713 15.3075 1.33368 12.1879Z" fill="#F8BD00"/>
<path d="M15.2846 12.3345H28.6766C29.1347 14.8476 29.0107 17.4322 28.3143 19.89C27.6736 22.15 26.429 24.1928 24.7143 25.7985C23.2091 24.624 21.6971 23.4585 20.1918 22.284C20.9381 21.7806 21.5751 21.1317 22.0645 20.3763C22.554 19.6208 22.8859 18.7743 23.0403 17.8875H15.2846C15.2823 16.038 15.2846 14.1862 15.2846 12.3345Z" fill="#587DBD"/>
<path d="M2.56873 21.39C4.12423 20.19 5.67898 18.984 7.23298 17.772C7.83419 19.5364 8.97764 21.0657 10.5 22.1415C11.4495 22.8126 12.5284 23.2785 13.668 23.5095C14.7909 23.7183 15.9426 23.7183 17.0655 23.5095C18.1851 23.32 19.2527 22.8984 20.1997 22.272C21.705 23.4465 23.217 24.612 24.7222 25.7865C23.075 27.2844 21.0669 28.3287 18.8947 28.8172C16.4971 29.3809 13.9986 29.3538 11.6137 28.7385C9.72755 28.2349 7.96574 27.3471 6.43873 26.1307C4.82246 24.8475 3.50237 23.2304 2.56873 21.39Z" fill="#319F43"/>
</g>
<defs>
<clipPath id="clip0_141_29248">
<rect width="28.8" height="28.8" fill="white" transform="translate(0.600769 0.600098)"/>
</clipPath>
</defs>
</svg>
